%TF.GenerationSoftware,KiCad,Pcbnew,10.0.4*%
%TF.CreationDate,2026-09-29T07:34:34-04:00*%
%TF.ProjectId,Buck_Converter,4275636b-5f43-46f6-9e76-65727465722e,rev?*%
%TF.SameCoordinates,Original*%
%TF.FileFunction,Legend,Top*%
%TF.FilePolarity,Positive*%
%FSLAX46Y46*%
G04 Gerber Fmt 4.6, Leading zero omitted, Abs format (unit mm)*
G04 Created by KiCad (PCBNEW 10.0.4) date 2026-09-29 07:34:34*
%MOMM*%
%LPD*%
G01*
G04 APERTURE LIST*
%ADD10C,0.100000*%
%ADD11C,0.150000*%
%ADD12C,0.120000*%
G04 APERTURE END LIST*
D10*
X155837217Y-89148609D02*
X155980074Y-89196228D01*
X155980074Y-89196228D02*
X156027693Y-89243847D01*
X156027693Y-89243847D02*
X156075312Y-89339085D01*
X156075312Y-89339085D02*
X156075312Y-89481942D01*
X156075312Y-89481942D02*
X156027693Y-89577180D01*
X156027693Y-89577180D02*
X155980074Y-89624800D01*
X155980074Y-89624800D02*
X155884836Y-89672419D01*
X155884836Y-89672419D02*
X155503884Y-89672419D01*
X155503884Y-89672419D02*
X155503884Y-88672419D01*
X155503884Y-88672419D02*
X155837217Y-88672419D01*
X155837217Y-88672419D02*
X155932455Y-88720038D01*
X155932455Y-88720038D02*
X155980074Y-88767657D01*
X155980074Y-88767657D02*
X156027693Y-88862895D01*
X156027693Y-88862895D02*
X156027693Y-88958133D01*
X156027693Y-88958133D02*
X155980074Y-89053371D01*
X155980074Y-89053371D02*
X155932455Y-89100990D01*
X155932455Y-89100990D02*
X155837217Y-89148609D01*
X155837217Y-89148609D02*
X155503884Y-89148609D01*
X156932455Y-89005752D02*
X156932455Y-89672419D01*
X156503884Y-89005752D02*
X156503884Y-89529561D01*
X156503884Y-89529561D02*
X156551503Y-89624800D01*
X156551503Y-89624800D02*
X156646741Y-89672419D01*
X156646741Y-89672419D02*
X156789598Y-89672419D01*
X156789598Y-89672419D02*
X156884836Y-89624800D01*
X156884836Y-89624800D02*
X156932455Y-89577180D01*
X157837217Y-89624800D02*
X157741979Y-89672419D01*
X157741979Y-89672419D02*
X157551503Y-89672419D01*
X157551503Y-89672419D02*
X157456265Y-89624800D01*
X157456265Y-89624800D02*
X157408646Y-89577180D01*
X157408646Y-89577180D02*
X157361027Y-89481942D01*
X157361027Y-89481942D02*
X157361027Y-89196228D01*
X157361027Y-89196228D02*
X157408646Y-89100990D01*
X157408646Y-89100990D02*
X157456265Y-89053371D01*
X157456265Y-89053371D02*
X157551503Y-89005752D01*
X157551503Y-89005752D02*
X157741979Y-89005752D01*
X157741979Y-89005752D02*
X157837217Y-89053371D01*
X158265789Y-89672419D02*
X158265789Y-88672419D01*
X158361027Y-89291466D02*
X158646741Y-89672419D01*
X158646741Y-89005752D02*
X158265789Y-89386704D01*
X160408646Y-89577180D02*
X160361027Y-89624800D01*
X160361027Y-89624800D02*
X160218170Y-89672419D01*
X160218170Y-89672419D02*
X160122932Y-89672419D01*
X160122932Y-89672419D02*
X159980075Y-89624800D01*
X159980075Y-89624800D02*
X159884837Y-89529561D01*
X159884837Y-89529561D02*
X159837218Y-89434323D01*
X159837218Y-89434323D02*
X159789599Y-89243847D01*
X159789599Y-89243847D02*
X159789599Y-89100990D01*
X159789599Y-89100990D02*
X159837218Y-88910514D01*
X159837218Y-88910514D02*
X159884837Y-88815276D01*
X159884837Y-88815276D02*
X159980075Y-88720038D01*
X159980075Y-88720038D02*
X160122932Y-88672419D01*
X160122932Y-88672419D02*
X160218170Y-88672419D01*
X160218170Y-88672419D02*
X160361027Y-88720038D01*
X160361027Y-88720038D02*
X160408646Y-88767657D01*
X160980075Y-89672419D02*
X160884837Y-89624800D01*
X160884837Y-89624800D02*
X160837218Y-89577180D01*
X160837218Y-89577180D02*
X160789599Y-89481942D01*
X160789599Y-89481942D02*
X160789599Y-89196228D01*
X160789599Y-89196228D02*
X160837218Y-89100990D01*
X160837218Y-89100990D02*
X160884837Y-89053371D01*
X160884837Y-89053371D02*
X160980075Y-89005752D01*
X160980075Y-89005752D02*
X161122932Y-89005752D01*
X161122932Y-89005752D02*
X161218170Y-89053371D01*
X161218170Y-89053371D02*
X161265789Y-89100990D01*
X161265789Y-89100990D02*
X161313408Y-89196228D01*
X161313408Y-89196228D02*
X161313408Y-89481942D01*
X161313408Y-89481942D02*
X161265789Y-89577180D01*
X161265789Y-89577180D02*
X161218170Y-89624800D01*
X161218170Y-89624800D02*
X161122932Y-89672419D01*
X161122932Y-89672419D02*
X160980075Y-89672419D01*
X161741980Y-89005752D02*
X161741980Y-89672419D01*
X161741980Y-89100990D02*
X161789599Y-89053371D01*
X161789599Y-89053371D02*
X161884837Y-89005752D01*
X161884837Y-89005752D02*
X162027694Y-89005752D01*
X162027694Y-89005752D02*
X162122932Y-89053371D01*
X162122932Y-89053371D02*
X162170551Y-89148609D01*
X162170551Y-89148609D02*
X162170551Y-89672419D01*
X162551504Y-89005752D02*
X162789599Y-89672419D01*
X162789599Y-89672419D02*
X163027694Y-89005752D01*
X163789599Y-89624800D02*
X163694361Y-89672419D01*
X163694361Y-89672419D02*
X163503885Y-89672419D01*
X163503885Y-89672419D02*
X163408647Y-89624800D01*
X163408647Y-89624800D02*
X163361028Y-89529561D01*
X163361028Y-89529561D02*
X163361028Y-89148609D01*
X163361028Y-89148609D02*
X163408647Y-89053371D01*
X163408647Y-89053371D02*
X163503885Y-89005752D01*
X163503885Y-89005752D02*
X163694361Y-89005752D01*
X163694361Y-89005752D02*
X163789599Y-89053371D01*
X163789599Y-89053371D02*
X163837218Y-89148609D01*
X163837218Y-89148609D02*
X163837218Y-89243847D01*
X163837218Y-89243847D02*
X163361028Y-89339085D01*
X164265790Y-89672419D02*
X164265790Y-89005752D01*
X164265790Y-89196228D02*
X164313409Y-89100990D01*
X164313409Y-89100990D02*
X164361028Y-89053371D01*
X164361028Y-89053371D02*
X164456266Y-89005752D01*
X164456266Y-89005752D02*
X164551504Y-89005752D01*
X164741981Y-89005752D02*
X165122933Y-89005752D01*
X164884838Y-88672419D02*
X164884838Y-89529561D01*
X164884838Y-89529561D02*
X164932457Y-89624800D01*
X164932457Y-89624800D02*
X165027695Y-89672419D01*
X165027695Y-89672419D02*
X165122933Y-89672419D01*
X165837219Y-89624800D02*
X165741981Y-89672419D01*
X165741981Y-89672419D02*
X165551505Y-89672419D01*
X165551505Y-89672419D02*
X165456267Y-89624800D01*
X165456267Y-89624800D02*
X165408648Y-89529561D01*
X165408648Y-89529561D02*
X165408648Y-89148609D01*
X165408648Y-89148609D02*
X165456267Y-89053371D01*
X165456267Y-89053371D02*
X165551505Y-89005752D01*
X165551505Y-89005752D02*
X165741981Y-89005752D01*
X165741981Y-89005752D02*
X165837219Y-89053371D01*
X165837219Y-89053371D02*
X165884838Y-89148609D01*
X165884838Y-89148609D02*
X165884838Y-89243847D01*
X165884838Y-89243847D02*
X165408648Y-89339085D01*
X166313410Y-89672419D02*
X166313410Y-89005752D01*
X166313410Y-89196228D02*
X166361029Y-89100990D01*
X166361029Y-89100990D02*
X166408648Y-89053371D01*
X166408648Y-89053371D02*
X166503886Y-89005752D01*
X166503886Y-89005752D02*
X166599124Y-89005752D01*
X167741982Y-89672419D02*
X167932458Y-89672419D01*
X167932458Y-89672419D02*
X168027696Y-89624800D01*
X168027696Y-89624800D02*
X168075315Y-89577180D01*
X168075315Y-89577180D02*
X168170553Y-89434323D01*
X168170553Y-89434323D02*
X168218172Y-89243847D01*
X168218172Y-89243847D02*
X168218172Y-88862895D01*
X168218172Y-88862895D02*
X168170553Y-88767657D01*
X168170553Y-88767657D02*
X168122934Y-88720038D01*
X168122934Y-88720038D02*
X168027696Y-88672419D01*
X168027696Y-88672419D02*
X167837220Y-88672419D01*
X167837220Y-88672419D02*
X167741982Y-88720038D01*
X167741982Y-88720038D02*
X167694363Y-88767657D01*
X167694363Y-88767657D02*
X167646744Y-88862895D01*
X167646744Y-88862895D02*
X167646744Y-89100990D01*
X167646744Y-89100990D02*
X167694363Y-89196228D01*
X167694363Y-89196228D02*
X167741982Y-89243847D01*
X167741982Y-89243847D02*
X167837220Y-89291466D01*
X167837220Y-89291466D02*
X168027696Y-89291466D01*
X168027696Y-89291466D02*
X168122934Y-89243847D01*
X168122934Y-89243847D02*
X168170553Y-89196228D01*
X168170553Y-89196228D02*
X168218172Y-89100990D01*
X169361029Y-88624800D02*
X168503887Y-89910514D01*
X169646744Y-88767657D02*
X169694363Y-88720038D01*
X169694363Y-88720038D02*
X169789601Y-88672419D01*
X169789601Y-88672419D02*
X170027696Y-88672419D01*
X170027696Y-88672419D02*
X170122934Y-88720038D01*
X170122934Y-88720038D02*
X170170553Y-88767657D01*
X170170553Y-88767657D02*
X170218172Y-88862895D01*
X170218172Y-88862895D02*
X170218172Y-88958133D01*
X170218172Y-88958133D02*
X170170553Y-89100990D01*
X170170553Y-89100990D02*
X169599125Y-89672419D01*
X169599125Y-89672419D02*
X170218172Y-89672419D01*
X170694363Y-89672419D02*
X170884839Y-89672419D01*
X170884839Y-89672419D02*
X170980077Y-89624800D01*
X170980077Y-89624800D02*
X171027696Y-89577180D01*
X171027696Y-89577180D02*
X171122934Y-89434323D01*
X171122934Y-89434323D02*
X171170553Y-89243847D01*
X171170553Y-89243847D02*
X171170553Y-88862895D01*
X171170553Y-88862895D02*
X171122934Y-88767657D01*
X171122934Y-88767657D02*
X171075315Y-88720038D01*
X171075315Y-88720038D02*
X170980077Y-88672419D01*
X170980077Y-88672419D02*
X170789601Y-88672419D01*
X170789601Y-88672419D02*
X170694363Y-88720038D01*
X170694363Y-88720038D02*
X170646744Y-88767657D01*
X170646744Y-88767657D02*
X170599125Y-88862895D01*
X170599125Y-88862895D02*
X170599125Y-89100990D01*
X170599125Y-89100990D02*
X170646744Y-89196228D01*
X170646744Y-89196228D02*
X170694363Y-89243847D01*
X170694363Y-89243847D02*
X170789601Y-89291466D01*
X170789601Y-89291466D02*
X170980077Y-89291466D01*
X170980077Y-89291466D02*
X171075315Y-89243847D01*
X171075315Y-89243847D02*
X171122934Y-89196228D01*
X171122934Y-89196228D02*
X171170553Y-89100990D01*
X172313410Y-88624800D02*
X171456268Y-89910514D01*
X172599125Y-88767657D02*
X172646744Y-88720038D01*
X172646744Y-88720038D02*
X172741982Y-88672419D01*
X172741982Y-88672419D02*
X172980077Y-88672419D01*
X172980077Y-88672419D02*
X173075315Y-88720038D01*
X173075315Y-88720038D02*
X173122934Y-88767657D01*
X173122934Y-88767657D02*
X173170553Y-88862895D01*
X173170553Y-88862895D02*
X173170553Y-88958133D01*
X173170553Y-88958133D02*
X173122934Y-89100990D01*
X173122934Y-89100990D02*
X172551506Y-89672419D01*
X172551506Y-89672419D02*
X173170553Y-89672419D01*
X174027696Y-88672419D02*
X173837220Y-88672419D01*
X173837220Y-88672419D02*
X173741982Y-88720038D01*
X173741982Y-88720038D02*
X173694363Y-88767657D01*
X173694363Y-88767657D02*
X173599125Y-88910514D01*
X173599125Y-88910514D02*
X173551506Y-89100990D01*
X173551506Y-89100990D02*
X173551506Y-89481942D01*
X173551506Y-89481942D02*
X173599125Y-89577180D01*
X173599125Y-89577180D02*
X173646744Y-89624800D01*
X173646744Y-89624800D02*
X173741982Y-89672419D01*
X173741982Y-89672419D02*
X173932458Y-89672419D01*
X173932458Y-89672419D02*
X174027696Y-89624800D01*
X174027696Y-89624800D02*
X174075315Y-89577180D01*
X174075315Y-89577180D02*
X174122934Y-89481942D01*
X174122934Y-89481942D02*
X174122934Y-89243847D01*
X174122934Y-89243847D02*
X174075315Y-89148609D01*
X174075315Y-89148609D02*
X174027696Y-89100990D01*
X174027696Y-89100990D02*
X173932458Y-89053371D01*
X173932458Y-89053371D02*
X173741982Y-89053371D01*
X173741982Y-89053371D02*
X173646744Y-89100990D01*
X173646744Y-89100990D02*
X173599125Y-89148609D01*
X173599125Y-89148609D02*
X173551506Y-89243847D01*
X179427693Y-101720038D02*
X179332455Y-101672419D01*
X179332455Y-101672419D02*
X179189598Y-101672419D01*
X179189598Y-101672419D02*
X179046741Y-101720038D01*
X179046741Y-101720038D02*
X178951503Y-101815276D01*
X178951503Y-101815276D02*
X178903884Y-101910514D01*
X178903884Y-101910514D02*
X178856265Y-102100990D01*
X178856265Y-102100990D02*
X178856265Y-102243847D01*
X178856265Y-102243847D02*
X178903884Y-102434323D01*
X178903884Y-102434323D02*
X178951503Y-102529561D01*
X178951503Y-102529561D02*
X179046741Y-102624800D01*
X179046741Y-102624800D02*
X179189598Y-102672419D01*
X179189598Y-102672419D02*
X179284836Y-102672419D01*
X179284836Y-102672419D02*
X179427693Y-102624800D01*
X179427693Y-102624800D02*
X179475312Y-102577180D01*
X179475312Y-102577180D02*
X179475312Y-102243847D01*
X179475312Y-102243847D02*
X179284836Y-102243847D01*
X179903884Y-102672419D02*
X179903884Y-101672419D01*
X179903884Y-101672419D02*
X180475312Y-102672419D01*
X180475312Y-102672419D02*
X180475312Y-101672419D01*
X180951503Y-102672419D02*
X180951503Y-101672419D01*
X180951503Y-101672419D02*
X181189598Y-101672419D01*
X181189598Y-101672419D02*
X181332455Y-101720038D01*
X181332455Y-101720038D02*
X181427693Y-101815276D01*
X181427693Y-101815276D02*
X181475312Y-101910514D01*
X181475312Y-101910514D02*
X181522931Y-102100990D01*
X181522931Y-102100990D02*
X181522931Y-102243847D01*
X181522931Y-102243847D02*
X181475312Y-102434323D01*
X181475312Y-102434323D02*
X181427693Y-102529561D01*
X181427693Y-102529561D02*
X181332455Y-102624800D01*
X181332455Y-102624800D02*
X181189598Y-102672419D01*
X181189598Y-102672419D02*
X180951503Y-102672419D01*
X185361027Y-90272419D02*
X185694360Y-91272419D01*
X185694360Y-91272419D02*
X186027693Y-90272419D01*
X187313408Y-90272419D02*
X187503884Y-90272419D01*
X187503884Y-90272419D02*
X187599122Y-90320038D01*
X187599122Y-90320038D02*
X187694360Y-90415276D01*
X187694360Y-90415276D02*
X187741979Y-90605752D01*
X187741979Y-90605752D02*
X187741979Y-90939085D01*
X187741979Y-90939085D02*
X187694360Y-91129561D01*
X187694360Y-91129561D02*
X187599122Y-91224800D01*
X187599122Y-91224800D02*
X187503884Y-91272419D01*
X187503884Y-91272419D02*
X187313408Y-91272419D01*
X187313408Y-91272419D02*
X187218170Y-91224800D01*
X187218170Y-91224800D02*
X187122932Y-91129561D01*
X187122932Y-91129561D02*
X187075313Y-90939085D01*
X187075313Y-90939085D02*
X187075313Y-90605752D01*
X187075313Y-90605752D02*
X187122932Y-90415276D01*
X187122932Y-90415276D02*
X187218170Y-90320038D01*
X187218170Y-90320038D02*
X187313408Y-90272419D01*
X188170551Y-90272419D02*
X188170551Y-91081942D01*
X188170551Y-91081942D02*
X188218170Y-91177180D01*
X188218170Y-91177180D02*
X188265789Y-91224800D01*
X188265789Y-91224800D02*
X188361027Y-91272419D01*
X188361027Y-91272419D02*
X188551503Y-91272419D01*
X188551503Y-91272419D02*
X188646741Y-91224800D01*
X188646741Y-91224800D02*
X188694360Y-91177180D01*
X188694360Y-91177180D02*
X188741979Y-91081942D01*
X188741979Y-91081942D02*
X188741979Y-90272419D01*
X189075313Y-90272419D02*
X189646741Y-90272419D01*
X189361027Y-91272419D02*
X189361027Y-90272419D01*
X125186265Y-111824800D02*
X125329122Y-111872419D01*
X125329122Y-111872419D02*
X125567217Y-111872419D01*
X125567217Y-111872419D02*
X125662455Y-111824800D01*
X125662455Y-111824800D02*
X125710074Y-111777180D01*
X125710074Y-111777180D02*
X125757693Y-111681942D01*
X125757693Y-111681942D02*
X125757693Y-111586704D01*
X125757693Y-111586704D02*
X125710074Y-111491466D01*
X125710074Y-111491466D02*
X125662455Y-111443847D01*
X125662455Y-111443847D02*
X125567217Y-111396228D01*
X125567217Y-111396228D02*
X125376741Y-111348609D01*
X125376741Y-111348609D02*
X125281503Y-111300990D01*
X125281503Y-111300990D02*
X125233884Y-111253371D01*
X125233884Y-111253371D02*
X125186265Y-111158133D01*
X125186265Y-111158133D02*
X125186265Y-111062895D01*
X125186265Y-111062895D02*
X125233884Y-110967657D01*
X125233884Y-110967657D02*
X125281503Y-110920038D01*
X125281503Y-110920038D02*
X125376741Y-110872419D01*
X125376741Y-110872419D02*
X125614836Y-110872419D01*
X125614836Y-110872419D02*
X125757693Y-110920038D01*
X126186265Y-111872419D02*
X126186265Y-110872419D01*
X126186265Y-110872419D02*
X126424360Y-110872419D01*
X126424360Y-110872419D02*
X126567217Y-110920038D01*
X126567217Y-110920038D02*
X126662455Y-111015276D01*
X126662455Y-111015276D02*
X126710074Y-111110514D01*
X126710074Y-111110514D02*
X126757693Y-111300990D01*
X126757693Y-111300990D02*
X126757693Y-111443847D01*
X126757693Y-111443847D02*
X126710074Y-111634323D01*
X126710074Y-111634323D02*
X126662455Y-111729561D01*
X126662455Y-111729561D02*
X126567217Y-111824800D01*
X126567217Y-111824800D02*
X126424360Y-111872419D01*
X126424360Y-111872419D02*
X126186265Y-111872419D01*
X125103884Y-107072419D02*
X125103884Y-106072419D01*
X125103884Y-106072419D02*
X125484836Y-106072419D01*
X125484836Y-106072419D02*
X125580074Y-106120038D01*
X125580074Y-106120038D02*
X125627693Y-106167657D01*
X125627693Y-106167657D02*
X125675312Y-106262895D01*
X125675312Y-106262895D02*
X125675312Y-106405752D01*
X125675312Y-106405752D02*
X125627693Y-106500990D01*
X125627693Y-106500990D02*
X125580074Y-106548609D01*
X125580074Y-106548609D02*
X125484836Y-106596228D01*
X125484836Y-106596228D02*
X125103884Y-106596228D01*
X126008646Y-106072419D02*
X126246741Y-107072419D01*
X126246741Y-107072419D02*
X126437217Y-106358133D01*
X126437217Y-106358133D02*
X126627693Y-107072419D01*
X126627693Y-107072419D02*
X126865789Y-106072419D01*
X127246741Y-107072419D02*
X127246741Y-106072419D01*
X127246741Y-106072419D02*
X127580074Y-106786704D01*
X127580074Y-106786704D02*
X127913407Y-106072419D01*
X127913407Y-106072419D02*
X127913407Y-107072419D01*
X117703884Y-90891466D02*
X118465789Y-90891466D01*
X118084836Y-91272419D02*
X118084836Y-90510514D01*
X119465788Y-91272419D02*
X118894360Y-91272419D01*
X119180074Y-91272419D02*
X119180074Y-90272419D01*
X119180074Y-90272419D02*
X119084836Y-90415276D01*
X119084836Y-90415276D02*
X118989598Y-90510514D01*
X118989598Y-90510514D02*
X118894360Y-90558133D01*
X119846741Y-90367657D02*
X119894360Y-90320038D01*
X119894360Y-90320038D02*
X119989598Y-90272419D01*
X119989598Y-90272419D02*
X120227693Y-90272419D01*
X120227693Y-90272419D02*
X120322931Y-90320038D01*
X120322931Y-90320038D02*
X120370550Y-90367657D01*
X120370550Y-90367657D02*
X120418169Y-90462895D01*
X120418169Y-90462895D02*
X120418169Y-90558133D01*
X120418169Y-90558133D02*
X120370550Y-90700990D01*
X120370550Y-90700990D02*
X119799122Y-91272419D01*
X119799122Y-91272419D02*
X120418169Y-91272419D01*
X120703884Y-90272419D02*
X121037217Y-91272419D01*
X121037217Y-91272419D02*
X121370550Y-90272419D01*
X122465789Y-91272419D02*
X122465789Y-90272419D01*
X122941979Y-91272419D02*
X122941979Y-90272419D01*
X122941979Y-90272419D02*
X123513407Y-91272419D01*
X123513407Y-91272419D02*
X123513407Y-90272419D01*
X125757693Y-99080038D02*
X125662455Y-99032419D01*
X125662455Y-99032419D02*
X125519598Y-99032419D01*
X125519598Y-99032419D02*
X125376741Y-99080038D01*
X125376741Y-99080038D02*
X125281503Y-99175276D01*
X125281503Y-99175276D02*
X125233884Y-99270514D01*
X125233884Y-99270514D02*
X125186265Y-99460990D01*
X125186265Y-99460990D02*
X125186265Y-99603847D01*
X125186265Y-99603847D02*
X125233884Y-99794323D01*
X125233884Y-99794323D02*
X125281503Y-99889561D01*
X125281503Y-99889561D02*
X125376741Y-99984800D01*
X125376741Y-99984800D02*
X125519598Y-100032419D01*
X125519598Y-100032419D02*
X125614836Y-100032419D01*
X125614836Y-100032419D02*
X125757693Y-99984800D01*
X125757693Y-99984800D02*
X125805312Y-99937180D01*
X125805312Y-99937180D02*
X125805312Y-99603847D01*
X125805312Y-99603847D02*
X125614836Y-99603847D01*
X126233884Y-100032419D02*
X126233884Y-99032419D01*
X126233884Y-99032419D02*
X126805312Y-100032419D01*
X126805312Y-100032419D02*
X126805312Y-99032419D01*
X127281503Y-100032419D02*
X127281503Y-99032419D01*
X127281503Y-99032419D02*
X127519598Y-99032419D01*
X127519598Y-99032419D02*
X127662455Y-99080038D01*
X127662455Y-99080038D02*
X127757693Y-99175276D01*
X127757693Y-99175276D02*
X127805312Y-99270514D01*
X127805312Y-99270514D02*
X127852931Y-99460990D01*
X127852931Y-99460990D02*
X127852931Y-99603847D01*
X127852931Y-99603847D02*
X127805312Y-99794323D01*
X127805312Y-99794323D02*
X127757693Y-99889561D01*
X127757693Y-99889561D02*
X127662455Y-99984800D01*
X127662455Y-99984800D02*
X127519598Y-100032419D01*
X127519598Y-100032419D02*
X127281503Y-100032419D01*
D11*
X139461905Y-91654819D02*
X139461905Y-90654819D01*
X139461905Y-90654819D02*
X139700000Y-90654819D01*
X139700000Y-90654819D02*
X139842857Y-90702438D01*
X139842857Y-90702438D02*
X139938095Y-90797676D01*
X139938095Y-90797676D02*
X139985714Y-90892914D01*
X139985714Y-90892914D02*
X140033333Y-91083390D01*
X140033333Y-91083390D02*
X140033333Y-91226247D01*
X140033333Y-91226247D02*
X139985714Y-91416723D01*
X139985714Y-91416723D02*
X139938095Y-91511961D01*
X139938095Y-91511961D02*
X139842857Y-91607200D01*
X139842857Y-91607200D02*
X139700000Y-91654819D01*
X139700000Y-91654819D02*
X139461905Y-91654819D01*
X140366667Y-90654819D02*
X140985714Y-90654819D01*
X140985714Y-90654819D02*
X140652381Y-91035771D01*
X140652381Y-91035771D02*
X140795238Y-91035771D01*
X140795238Y-91035771D02*
X140890476Y-91083390D01*
X140890476Y-91083390D02*
X140938095Y-91131009D01*
X140938095Y-91131009D02*
X140985714Y-91226247D01*
X140985714Y-91226247D02*
X140985714Y-91464342D01*
X140985714Y-91464342D02*
X140938095Y-91559580D01*
X140938095Y-91559580D02*
X140890476Y-91607200D01*
X140890476Y-91607200D02*
X140795238Y-91654819D01*
X140795238Y-91654819D02*
X140509524Y-91654819D01*
X140509524Y-91654819D02*
X140414286Y-91607200D01*
X140414286Y-91607200D02*
X140366667Y-91559580D01*
X141433333Y-97454819D02*
X141100000Y-96978628D01*
X140861905Y-97454819D02*
X140861905Y-96454819D01*
X140861905Y-96454819D02*
X141242857Y-96454819D01*
X141242857Y-96454819D02*
X141338095Y-96502438D01*
X141338095Y-96502438D02*
X141385714Y-96550057D01*
X141385714Y-96550057D02*
X141433333Y-96645295D01*
X141433333Y-96645295D02*
X141433333Y-96788152D01*
X141433333Y-96788152D02*
X141385714Y-96883390D01*
X141385714Y-96883390D02*
X141338095Y-96931009D01*
X141338095Y-96931009D02*
X141242857Y-96978628D01*
X141242857Y-96978628D02*
X140861905Y-96978628D01*
X142290476Y-96454819D02*
X142100000Y-96454819D01*
X142100000Y-96454819D02*
X142004762Y-96502438D01*
X142004762Y-96502438D02*
X141957143Y-96550057D01*
X141957143Y-96550057D02*
X141861905Y-96692914D01*
X141861905Y-96692914D02*
X141814286Y-96883390D01*
X141814286Y-96883390D02*
X141814286Y-97264342D01*
X141814286Y-97264342D02*
X141861905Y-97359580D01*
X141861905Y-97359580D02*
X141909524Y-97407200D01*
X141909524Y-97407200D02*
X142004762Y-97454819D01*
X142004762Y-97454819D02*
X142195238Y-97454819D01*
X142195238Y-97454819D02*
X142290476Y-97407200D01*
X142290476Y-97407200D02*
X142338095Y-97359580D01*
X142338095Y-97359580D02*
X142385714Y-97264342D01*
X142385714Y-97264342D02*
X142385714Y-97026247D01*
X142385714Y-97026247D02*
X142338095Y-96931009D01*
X142338095Y-96931009D02*
X142290476Y-96883390D01*
X142290476Y-96883390D02*
X142195238Y-96835771D01*
X142195238Y-96835771D02*
X142004762Y-96835771D01*
X142004762Y-96835771D02*
X141909524Y-96883390D01*
X141909524Y-96883390D02*
X141861905Y-96931009D01*
X141861905Y-96931009D02*
X141814286Y-97026247D01*
X134833333Y-98159580D02*
X134785714Y-98207200D01*
X134785714Y-98207200D02*
X134642857Y-98254819D01*
X134642857Y-98254819D02*
X134547619Y-98254819D01*
X134547619Y-98254819D02*
X134404762Y-98207200D01*
X134404762Y-98207200D02*
X134309524Y-98111961D01*
X134309524Y-98111961D02*
X134261905Y-98016723D01*
X134261905Y-98016723D02*
X134214286Y-97826247D01*
X134214286Y-97826247D02*
X134214286Y-97683390D01*
X134214286Y-97683390D02*
X134261905Y-97492914D01*
X134261905Y-97492914D02*
X134309524Y-97397676D01*
X134309524Y-97397676D02*
X134404762Y-97302438D01*
X134404762Y-97302438D02*
X134547619Y-97254819D01*
X134547619Y-97254819D02*
X134642857Y-97254819D01*
X134642857Y-97254819D02*
X134785714Y-97302438D01*
X134785714Y-97302438D02*
X134833333Y-97350057D01*
X135214286Y-97350057D02*
X135261905Y-97302438D01*
X135261905Y-97302438D02*
X135357143Y-97254819D01*
X135357143Y-97254819D02*
X135595238Y-97254819D01*
X135595238Y-97254819D02*
X135690476Y-97302438D01*
X135690476Y-97302438D02*
X135738095Y-97350057D01*
X135738095Y-97350057D02*
X135785714Y-97445295D01*
X135785714Y-97445295D02*
X135785714Y-97540533D01*
X135785714Y-97540533D02*
X135738095Y-97683390D01*
X135738095Y-97683390D02*
X135166667Y-98254819D01*
X135166667Y-98254819D02*
X135785714Y-98254819D01*
X125266666Y-108654819D02*
X125266666Y-109369104D01*
X125266666Y-109369104D02*
X125219047Y-109511961D01*
X125219047Y-109511961D02*
X125123809Y-109607200D01*
X125123809Y-109607200D02*
X124980952Y-109654819D01*
X124980952Y-109654819D02*
X124885714Y-109654819D01*
X126266666Y-109654819D02*
X125695238Y-109654819D01*
X125980952Y-109654819D02*
X125980952Y-108654819D01*
X125980952Y-108654819D02*
X125885714Y-108797676D01*
X125885714Y-108797676D02*
X125790476Y-108892914D01*
X125790476Y-108892914D02*
X125695238Y-108940533D01*
X128833333Y-113054819D02*
X128500000Y-112578628D01*
X128261905Y-113054819D02*
X128261905Y-112054819D01*
X128261905Y-112054819D02*
X128642857Y-112054819D01*
X128642857Y-112054819D02*
X128738095Y-112102438D01*
X128738095Y-112102438D02*
X128785714Y-112150057D01*
X128785714Y-112150057D02*
X128833333Y-112245295D01*
X128833333Y-112245295D02*
X128833333Y-112388152D01*
X128833333Y-112388152D02*
X128785714Y-112483390D01*
X128785714Y-112483390D02*
X128738095Y-112531009D01*
X128738095Y-112531009D02*
X128642857Y-112578628D01*
X128642857Y-112578628D02*
X128261905Y-112578628D01*
X129785714Y-113054819D02*
X129214286Y-113054819D01*
X129500000Y-113054819D02*
X129500000Y-112054819D01*
X129500000Y-112054819D02*
X129404762Y-112197676D01*
X129404762Y-112197676D02*
X129309524Y-112292914D01*
X129309524Y-112292914D02*
X129214286Y-112340533D01*
X174965656Y-91909580D02*
X174918037Y-91957200D01*
X174918037Y-91957200D02*
X174775180Y-92004819D01*
X174775180Y-92004819D02*
X174679942Y-92004819D01*
X174679942Y-92004819D02*
X174537085Y-91957200D01*
X174537085Y-91957200D02*
X174441847Y-91861961D01*
X174441847Y-91861961D02*
X174394228Y-91766723D01*
X174394228Y-91766723D02*
X174346609Y-91576247D01*
X174346609Y-91576247D02*
X174346609Y-91433390D01*
X174346609Y-91433390D02*
X174394228Y-91242914D01*
X174394228Y-91242914D02*
X174441847Y-91147676D01*
X174441847Y-91147676D02*
X174537085Y-91052438D01*
X174537085Y-91052438D02*
X174679942Y-91004819D01*
X174679942Y-91004819D02*
X174775180Y-91004819D01*
X174775180Y-91004819D02*
X174918037Y-91052438D01*
X174918037Y-91052438D02*
X174965656Y-91100057D01*
X175870418Y-91004819D02*
X175394228Y-91004819D01*
X175394228Y-91004819D02*
X175346609Y-91481009D01*
X175346609Y-91481009D02*
X175394228Y-91433390D01*
X175394228Y-91433390D02*
X175489466Y-91385771D01*
X175489466Y-91385771D02*
X175727561Y-91385771D01*
X175727561Y-91385771D02*
X175822799Y-91433390D01*
X175822799Y-91433390D02*
X175870418Y-91481009D01*
X175870418Y-91481009D02*
X175918037Y-91576247D01*
X175918037Y-91576247D02*
X175918037Y-91814342D01*
X175918037Y-91814342D02*
X175870418Y-91909580D01*
X175870418Y-91909580D02*
X175822799Y-91957200D01*
X175822799Y-91957200D02*
X175727561Y-92004819D01*
X175727561Y-92004819D02*
X175489466Y-92004819D01*
X175489466Y-92004819D02*
X175394228Y-91957200D01*
X175394228Y-91957200D02*
X175346609Y-91909580D01*
X134833333Y-107759580D02*
X134785714Y-107807200D01*
X134785714Y-107807200D02*
X134642857Y-107854819D01*
X134642857Y-107854819D02*
X134547619Y-107854819D01*
X134547619Y-107854819D02*
X134404762Y-107807200D01*
X134404762Y-107807200D02*
X134309524Y-107711961D01*
X134309524Y-107711961D02*
X134261905Y-107616723D01*
X134261905Y-107616723D02*
X134214286Y-107426247D01*
X134214286Y-107426247D02*
X134214286Y-107283390D01*
X134214286Y-107283390D02*
X134261905Y-107092914D01*
X134261905Y-107092914D02*
X134309524Y-106997676D01*
X134309524Y-106997676D02*
X134404762Y-106902438D01*
X134404762Y-106902438D02*
X134547619Y-106854819D01*
X134547619Y-106854819D02*
X134642857Y-106854819D01*
X134642857Y-106854819D02*
X134785714Y-106902438D01*
X134785714Y-106902438D02*
X134833333Y-106950057D01*
X135785714Y-107854819D02*
X135214286Y-107854819D01*
X135500000Y-107854819D02*
X135500000Y-106854819D01*
X135500000Y-106854819D02*
X135404762Y-106997676D01*
X135404762Y-106997676D02*
X135309524Y-107092914D01*
X135309524Y-107092914D02*
X135214286Y-107140533D01*
X115266666Y-90254819D02*
X115266666Y-90969104D01*
X115266666Y-90969104D02*
X115219047Y-91111961D01*
X115219047Y-91111961D02*
X115123809Y-91207200D01*
X115123809Y-91207200D02*
X114980952Y-91254819D01*
X114980952Y-91254819D02*
X114885714Y-91254819D01*
X115695238Y-90350057D02*
X115742857Y-90302438D01*
X115742857Y-90302438D02*
X115838095Y-90254819D01*
X115838095Y-90254819D02*
X116076190Y-90254819D01*
X116076190Y-90254819D02*
X116171428Y-90302438D01*
X116171428Y-90302438D02*
X116219047Y-90350057D01*
X116219047Y-90350057D02*
X116266666Y-90445295D01*
X116266666Y-90445295D02*
X116266666Y-90540533D01*
X116266666Y-90540533D02*
X116219047Y-90683390D01*
X116219047Y-90683390D02*
X115647619Y-91254819D01*
X115647619Y-91254819D02*
X116266666Y-91254819D01*
X180266666Y-108714819D02*
X180266666Y-109429104D01*
X180266666Y-109429104D02*
X180219047Y-109571961D01*
X180219047Y-109571961D02*
X180123809Y-109667200D01*
X180123809Y-109667200D02*
X179980952Y-109714819D01*
X179980952Y-109714819D02*
X179885714Y-109714819D01*
X180647619Y-108714819D02*
X181266666Y-108714819D01*
X181266666Y-108714819D02*
X180933333Y-109095771D01*
X180933333Y-109095771D02*
X181076190Y-109095771D01*
X181076190Y-109095771D02*
X181171428Y-109143390D01*
X181171428Y-109143390D02*
X181219047Y-109191009D01*
X181219047Y-109191009D02*
X181266666Y-109286247D01*
X181266666Y-109286247D02*
X181266666Y-109524342D01*
X181266666Y-109524342D02*
X181219047Y-109619580D01*
X181219047Y-109619580D02*
X181171428Y-109667200D01*
X181171428Y-109667200D02*
X181076190Y-109714819D01*
X181076190Y-109714819D02*
X180790476Y-109714819D01*
X180790476Y-109714819D02*
X180695238Y-109667200D01*
X180695238Y-109667200D02*
X180647619Y-109619580D01*
X176833333Y-111054819D02*
X176500000Y-110578628D01*
X176261905Y-111054819D02*
X176261905Y-110054819D01*
X176261905Y-110054819D02*
X176642857Y-110054819D01*
X176642857Y-110054819D02*
X176738095Y-110102438D01*
X176738095Y-110102438D02*
X176785714Y-110150057D01*
X176785714Y-110150057D02*
X176833333Y-110245295D01*
X176833333Y-110245295D02*
X176833333Y-110388152D01*
X176833333Y-110388152D02*
X176785714Y-110483390D01*
X176785714Y-110483390D02*
X176738095Y-110531009D01*
X176738095Y-110531009D02*
X176642857Y-110578628D01*
X176642857Y-110578628D02*
X176261905Y-110578628D01*
X177404762Y-110483390D02*
X177309524Y-110435771D01*
X177309524Y-110435771D02*
X177261905Y-110388152D01*
X177261905Y-110388152D02*
X177214286Y-110292914D01*
X177214286Y-110292914D02*
X177214286Y-110245295D01*
X177214286Y-110245295D02*
X177261905Y-110150057D01*
X177261905Y-110150057D02*
X177309524Y-110102438D01*
X177309524Y-110102438D02*
X177404762Y-110054819D01*
X177404762Y-110054819D02*
X177595238Y-110054819D01*
X177595238Y-110054819D02*
X177690476Y-110102438D01*
X177690476Y-110102438D02*
X177738095Y-110150057D01*
X177738095Y-110150057D02*
X177785714Y-110245295D01*
X177785714Y-110245295D02*
X177785714Y-110292914D01*
X177785714Y-110292914D02*
X177738095Y-110388152D01*
X177738095Y-110388152D02*
X177690476Y-110435771D01*
X177690476Y-110435771D02*
X177595238Y-110483390D01*
X177595238Y-110483390D02*
X177404762Y-110483390D01*
X177404762Y-110483390D02*
X177309524Y-110531009D01*
X177309524Y-110531009D02*
X177261905Y-110578628D01*
X177261905Y-110578628D02*
X177214286Y-110673866D01*
X177214286Y-110673866D02*
X177214286Y-110864342D01*
X177214286Y-110864342D02*
X177261905Y-110959580D01*
X177261905Y-110959580D02*
X177309524Y-111007200D01*
X177309524Y-111007200D02*
X177404762Y-111054819D01*
X177404762Y-111054819D02*
X177595238Y-111054819D01*
X177595238Y-111054819D02*
X177690476Y-111007200D01*
X177690476Y-111007200D02*
X177738095Y-110959580D01*
X177738095Y-110959580D02*
X177785714Y-110864342D01*
X177785714Y-110864342D02*
X177785714Y-110673866D01*
X177785714Y-110673866D02*
X177738095Y-110578628D01*
X177738095Y-110578628D02*
X177690476Y-110531009D01*
X177690476Y-110531009D02*
X177595238Y-110483390D01*
X146633333Y-93454819D02*
X146300000Y-92978628D01*
X146061905Y-93454819D02*
X146061905Y-92454819D01*
X146061905Y-92454819D02*
X146442857Y-92454819D01*
X146442857Y-92454819D02*
X146538095Y-92502438D01*
X146538095Y-92502438D02*
X146585714Y-92550057D01*
X146585714Y-92550057D02*
X146633333Y-92645295D01*
X146633333Y-92645295D02*
X146633333Y-92788152D01*
X146633333Y-92788152D02*
X146585714Y-92883390D01*
X146585714Y-92883390D02*
X146538095Y-92931009D01*
X146538095Y-92931009D02*
X146442857Y-92978628D01*
X146442857Y-92978628D02*
X146061905Y-92978628D01*
X147490476Y-92788152D02*
X147490476Y-93454819D01*
X147252381Y-92407200D02*
X147014286Y-93121485D01*
X147014286Y-93121485D02*
X147633333Y-93121485D01*
X146633333Y-109054819D02*
X146300000Y-108578628D01*
X146061905Y-109054819D02*
X146061905Y-108054819D01*
X146061905Y-108054819D02*
X146442857Y-108054819D01*
X146442857Y-108054819D02*
X146538095Y-108102438D01*
X146538095Y-108102438D02*
X146585714Y-108150057D01*
X146585714Y-108150057D02*
X146633333Y-108245295D01*
X146633333Y-108245295D02*
X146633333Y-108388152D01*
X146633333Y-108388152D02*
X146585714Y-108483390D01*
X146585714Y-108483390D02*
X146538095Y-108531009D01*
X146538095Y-108531009D02*
X146442857Y-108578628D01*
X146442857Y-108578628D02*
X146061905Y-108578628D01*
X146966667Y-108054819D02*
X147585714Y-108054819D01*
X147585714Y-108054819D02*
X147252381Y-108435771D01*
X147252381Y-108435771D02*
X147395238Y-108435771D01*
X147395238Y-108435771D02*
X147490476Y-108483390D01*
X147490476Y-108483390D02*
X147538095Y-108531009D01*
X147538095Y-108531009D02*
X147585714Y-108626247D01*
X147585714Y-108626247D02*
X147585714Y-108864342D01*
X147585714Y-108864342D02*
X147538095Y-108959580D01*
X147538095Y-108959580D02*
X147490476Y-109007200D01*
X147490476Y-109007200D02*
X147395238Y-109054819D01*
X147395238Y-109054819D02*
X147109524Y-109054819D01*
X147109524Y-109054819D02*
X147014286Y-109007200D01*
X147014286Y-109007200D02*
X146966667Y-108959580D01*
X131163095Y-99654819D02*
X131163095Y-100464342D01*
X131163095Y-100464342D02*
X131210714Y-100559580D01*
X131210714Y-100559580D02*
X131258333Y-100607200D01*
X131258333Y-100607200D02*
X131353571Y-100654819D01*
X131353571Y-100654819D02*
X131544047Y-100654819D01*
X131544047Y-100654819D02*
X131639285Y-100607200D01*
X131639285Y-100607200D02*
X131686904Y-100559580D01*
X131686904Y-100559580D02*
X131734523Y-100464342D01*
X131734523Y-100464342D02*
X131734523Y-99654819D01*
X132734523Y-100654819D02*
X132163095Y-100654819D01*
X132448809Y-100654819D02*
X132448809Y-99654819D01*
X132448809Y-99654819D02*
X132353571Y-99797676D01*
X132353571Y-99797676D02*
X132258333Y-99892914D01*
X132258333Y-99892914D02*
X132163095Y-99940533D01*
X154704761Y-97350057D02*
X154609523Y-97302438D01*
X154609523Y-97302438D02*
X154514285Y-97207200D01*
X154514285Y-97207200D02*
X154371428Y-97064342D01*
X154371428Y-97064342D02*
X154276190Y-97016723D01*
X154276190Y-97016723D02*
X154180952Y-97016723D01*
X154228571Y-97254819D02*
X154133333Y-97207200D01*
X154133333Y-97207200D02*
X154038095Y-97111961D01*
X154038095Y-97111961D02*
X153990476Y-96921485D01*
X153990476Y-96921485D02*
X153990476Y-96588152D01*
X153990476Y-96588152D02*
X154038095Y-96397676D01*
X154038095Y-96397676D02*
X154133333Y-96302438D01*
X154133333Y-96302438D02*
X154228571Y-96254819D01*
X154228571Y-96254819D02*
X154419047Y-96254819D01*
X154419047Y-96254819D02*
X154514285Y-96302438D01*
X154514285Y-96302438D02*
X154609523Y-96397676D01*
X154609523Y-96397676D02*
X154657142Y-96588152D01*
X154657142Y-96588152D02*
X154657142Y-96921485D01*
X154657142Y-96921485D02*
X154609523Y-97111961D01*
X154609523Y-97111961D02*
X154514285Y-97207200D01*
X154514285Y-97207200D02*
X154419047Y-97254819D01*
X154419047Y-97254819D02*
X154228571Y-97254819D01*
X155609523Y-97254819D02*
X155038095Y-97254819D01*
X155323809Y-97254819D02*
X155323809Y-96254819D01*
X155323809Y-96254819D02*
X155228571Y-96397676D01*
X155228571Y-96397676D02*
X155133333Y-96492914D01*
X155133333Y-96492914D02*
X155038095Y-96540533D01*
X174833333Y-105404819D02*
X174500000Y-104928628D01*
X174261905Y-105404819D02*
X174261905Y-104404819D01*
X174261905Y-104404819D02*
X174642857Y-104404819D01*
X174642857Y-104404819D02*
X174738095Y-104452438D01*
X174738095Y-104452438D02*
X174785714Y-104500057D01*
X174785714Y-104500057D02*
X174833333Y-104595295D01*
X174833333Y-104595295D02*
X174833333Y-104738152D01*
X174833333Y-104738152D02*
X174785714Y-104833390D01*
X174785714Y-104833390D02*
X174738095Y-104881009D01*
X174738095Y-104881009D02*
X174642857Y-104928628D01*
X174642857Y-104928628D02*
X174261905Y-104928628D01*
X175166667Y-104404819D02*
X175833333Y-104404819D01*
X175833333Y-104404819D02*
X175404762Y-105404819D01*
X156310833Y-103709819D02*
X155834643Y-103709819D01*
X155834643Y-103709819D02*
X155834643Y-102709819D01*
X157167976Y-103709819D02*
X156596548Y-103709819D01*
X156882262Y-103709819D02*
X156882262Y-102709819D01*
X156882262Y-102709819D02*
X156787024Y-102852676D01*
X156787024Y-102852676D02*
X156691786Y-102947914D01*
X156691786Y-102947914D02*
X156596548Y-102995533D01*
X128233333Y-98159580D02*
X128185714Y-98207200D01*
X128185714Y-98207200D02*
X128042857Y-98254819D01*
X128042857Y-98254819D02*
X127947619Y-98254819D01*
X127947619Y-98254819D02*
X127804762Y-98207200D01*
X127804762Y-98207200D02*
X127709524Y-98111961D01*
X127709524Y-98111961D02*
X127661905Y-98016723D01*
X127661905Y-98016723D02*
X127614286Y-97826247D01*
X127614286Y-97826247D02*
X127614286Y-97683390D01*
X127614286Y-97683390D02*
X127661905Y-97492914D01*
X127661905Y-97492914D02*
X127709524Y-97397676D01*
X127709524Y-97397676D02*
X127804762Y-97302438D01*
X127804762Y-97302438D02*
X127947619Y-97254819D01*
X127947619Y-97254819D02*
X128042857Y-97254819D01*
X128042857Y-97254819D02*
X128185714Y-97302438D01*
X128185714Y-97302438D02*
X128233333Y-97350057D01*
X128566667Y-97254819D02*
X129185714Y-97254819D01*
X129185714Y-97254819D02*
X128852381Y-97635771D01*
X128852381Y-97635771D02*
X128995238Y-97635771D01*
X128995238Y-97635771D02*
X129090476Y-97683390D01*
X129090476Y-97683390D02*
X129138095Y-97731009D01*
X129138095Y-97731009D02*
X129185714Y-97826247D01*
X129185714Y-97826247D02*
X129185714Y-98064342D01*
X129185714Y-98064342D02*
X129138095Y-98159580D01*
X129138095Y-98159580D02*
X129090476Y-98207200D01*
X129090476Y-98207200D02*
X128995238Y-98254819D01*
X128995238Y-98254819D02*
X128709524Y-98254819D01*
X128709524Y-98254819D02*
X128614286Y-98207200D01*
X128614286Y-98207200D02*
X128566667Y-98159580D01*
X154704761Y-109950057D02*
X154609523Y-109902438D01*
X154609523Y-109902438D02*
X154514285Y-109807200D01*
X154514285Y-109807200D02*
X154371428Y-109664342D01*
X154371428Y-109664342D02*
X154276190Y-109616723D01*
X154276190Y-109616723D02*
X154180952Y-109616723D01*
X154228571Y-109854819D02*
X154133333Y-109807200D01*
X154133333Y-109807200D02*
X154038095Y-109711961D01*
X154038095Y-109711961D02*
X153990476Y-109521485D01*
X153990476Y-109521485D02*
X153990476Y-109188152D01*
X153990476Y-109188152D02*
X154038095Y-108997676D01*
X154038095Y-108997676D02*
X154133333Y-108902438D01*
X154133333Y-108902438D02*
X154228571Y-108854819D01*
X154228571Y-108854819D02*
X154419047Y-108854819D01*
X154419047Y-108854819D02*
X154514285Y-108902438D01*
X154514285Y-108902438D02*
X154609523Y-108997676D01*
X154609523Y-108997676D02*
X154657142Y-109188152D01*
X154657142Y-109188152D02*
X154657142Y-109521485D01*
X154657142Y-109521485D02*
X154609523Y-109711961D01*
X154609523Y-109711961D02*
X154514285Y-109807200D01*
X154514285Y-109807200D02*
X154419047Y-109854819D01*
X154419047Y-109854819D02*
X154228571Y-109854819D01*
X155038095Y-108950057D02*
X155085714Y-108902438D01*
X155085714Y-108902438D02*
X155180952Y-108854819D01*
X155180952Y-108854819D02*
X155419047Y-108854819D01*
X155419047Y-108854819D02*
X155514285Y-108902438D01*
X155514285Y-108902438D02*
X155561904Y-108950057D01*
X155561904Y-108950057D02*
X155609523Y-109045295D01*
X155609523Y-109045295D02*
X155609523Y-109140533D01*
X155609523Y-109140533D02*
X155561904Y-109283390D01*
X155561904Y-109283390D02*
X154990476Y-109854819D01*
X154990476Y-109854819D02*
X155609523Y-109854819D01*
X148383333Y-103791903D02*
X148335714Y-103839523D01*
X148335714Y-103839523D02*
X148192857Y-103887142D01*
X148192857Y-103887142D02*
X148097619Y-103887142D01*
X148097619Y-103887142D02*
X147954762Y-103839523D01*
X147954762Y-103839523D02*
X147859524Y-103744284D01*
X147859524Y-103744284D02*
X147811905Y-103649046D01*
X147811905Y-103649046D02*
X147764286Y-103458570D01*
X147764286Y-103458570D02*
X147764286Y-103315713D01*
X147764286Y-103315713D02*
X147811905Y-103125237D01*
X147811905Y-103125237D02*
X147859524Y-103029999D01*
X147859524Y-103029999D02*
X147954762Y-102934761D01*
X147954762Y-102934761D02*
X148097619Y-102887142D01*
X148097619Y-102887142D02*
X148192857Y-102887142D01*
X148192857Y-102887142D02*
X148335714Y-102934761D01*
X148335714Y-102934761D02*
X148383333Y-102982380D01*
X149240476Y-103220475D02*
X149240476Y-103887142D01*
X149002381Y-102839523D02*
X148764286Y-103553808D01*
X148764286Y-103553808D02*
X149383333Y-103553808D01*
X129861905Y-91654819D02*
X129861905Y-90654819D01*
X129861905Y-90654819D02*
X130100000Y-90654819D01*
X130100000Y-90654819D02*
X130242857Y-90702438D01*
X130242857Y-90702438D02*
X130338095Y-90797676D01*
X130338095Y-90797676D02*
X130385714Y-90892914D01*
X130385714Y-90892914D02*
X130433333Y-91083390D01*
X130433333Y-91083390D02*
X130433333Y-91226247D01*
X130433333Y-91226247D02*
X130385714Y-91416723D01*
X130385714Y-91416723D02*
X130338095Y-91511961D01*
X130338095Y-91511961D02*
X130242857Y-91607200D01*
X130242857Y-91607200D02*
X130100000Y-91654819D01*
X130100000Y-91654819D02*
X129861905Y-91654819D01*
X131385714Y-91654819D02*
X130814286Y-91654819D01*
X131100000Y-91654819D02*
X131100000Y-90654819D01*
X131100000Y-90654819D02*
X131004762Y-90797676D01*
X131004762Y-90797676D02*
X130909524Y-90892914D01*
X130909524Y-90892914D02*
X130814286Y-90940533D01*
X137133333Y-108104819D02*
X136800000Y-107628628D01*
X136561905Y-108104819D02*
X136561905Y-107104819D01*
X136561905Y-107104819D02*
X136942857Y-107104819D01*
X136942857Y-107104819D02*
X137038095Y-107152438D01*
X137038095Y-107152438D02*
X137085714Y-107200057D01*
X137085714Y-107200057D02*
X137133333Y-107295295D01*
X137133333Y-107295295D02*
X137133333Y-107438152D01*
X137133333Y-107438152D02*
X137085714Y-107533390D01*
X137085714Y-107533390D02*
X137038095Y-107581009D01*
X137038095Y-107581009D02*
X136942857Y-107628628D01*
X136942857Y-107628628D02*
X136561905Y-107628628D01*
X138038095Y-107104819D02*
X137561905Y-107104819D01*
X137561905Y-107104819D02*
X137514286Y-107581009D01*
X137514286Y-107581009D02*
X137561905Y-107533390D01*
X137561905Y-107533390D02*
X137657143Y-107485771D01*
X137657143Y-107485771D02*
X137895238Y-107485771D01*
X137895238Y-107485771D02*
X137990476Y-107533390D01*
X137990476Y-107533390D02*
X138038095Y-107581009D01*
X138038095Y-107581009D02*
X138085714Y-107676247D01*
X138085714Y-107676247D02*
X138085714Y-107914342D01*
X138085714Y-107914342D02*
X138038095Y-108009580D01*
X138038095Y-108009580D02*
X137990476Y-108057200D01*
X137990476Y-108057200D02*
X137895238Y-108104819D01*
X137895238Y-108104819D02*
X137657143Y-108104819D01*
X137657143Y-108104819D02*
X137561905Y-108057200D01*
X137561905Y-108057200D02*
X137514286Y-108009580D01*
X139561905Y-110754819D02*
X139561905Y-109754819D01*
X139561905Y-109754819D02*
X139800000Y-109754819D01*
X139800000Y-109754819D02*
X139942857Y-109802438D01*
X139942857Y-109802438D02*
X140038095Y-109897676D01*
X140038095Y-109897676D02*
X140085714Y-109992914D01*
X140085714Y-109992914D02*
X140133333Y-110183390D01*
X140133333Y-110183390D02*
X140133333Y-110326247D01*
X140133333Y-110326247D02*
X140085714Y-110516723D01*
X140085714Y-110516723D02*
X140038095Y-110611961D01*
X140038095Y-110611961D02*
X139942857Y-110707200D01*
X139942857Y-110707200D02*
X139800000Y-110754819D01*
X139800000Y-110754819D02*
X139561905Y-110754819D01*
X140514286Y-109850057D02*
X140561905Y-109802438D01*
X140561905Y-109802438D02*
X140657143Y-109754819D01*
X140657143Y-109754819D02*
X140895238Y-109754819D01*
X140895238Y-109754819D02*
X140990476Y-109802438D01*
X140990476Y-109802438D02*
X141038095Y-109850057D01*
X141038095Y-109850057D02*
X141085714Y-109945295D01*
X141085714Y-109945295D02*
X141085714Y-110040533D01*
X141085714Y-110040533D02*
X141038095Y-110183390D01*
X141038095Y-110183390D02*
X140466667Y-110754819D01*
X140466667Y-110754819D02*
X141085714Y-110754819D01*
X180266666Y-91854819D02*
X180266666Y-92569104D01*
X180266666Y-92569104D02*
X180219047Y-92711961D01*
X180219047Y-92711961D02*
X180123809Y-92807200D01*
X180123809Y-92807200D02*
X179980952Y-92854819D01*
X179980952Y-92854819D02*
X179885714Y-92854819D01*
X181171428Y-92188152D02*
X181171428Y-92854819D01*
X180933333Y-91807200D02*
X180695238Y-92521485D01*
X180695238Y-92521485D02*
X181314285Y-92521485D01*
X128833333Y-110254819D02*
X128500000Y-109778628D01*
X128261905Y-110254819D02*
X128261905Y-109254819D01*
X128261905Y-109254819D02*
X128642857Y-109254819D01*
X128642857Y-109254819D02*
X128738095Y-109302438D01*
X128738095Y-109302438D02*
X128785714Y-109350057D01*
X128785714Y-109350057D02*
X128833333Y-109445295D01*
X128833333Y-109445295D02*
X128833333Y-109588152D01*
X128833333Y-109588152D02*
X128785714Y-109683390D01*
X128785714Y-109683390D02*
X128738095Y-109731009D01*
X128738095Y-109731009D02*
X128642857Y-109778628D01*
X128642857Y-109778628D02*
X128261905Y-109778628D01*
X129214286Y-109350057D02*
X129261905Y-109302438D01*
X129261905Y-109302438D02*
X129357143Y-109254819D01*
X129357143Y-109254819D02*
X129595238Y-109254819D01*
X129595238Y-109254819D02*
X129690476Y-109302438D01*
X129690476Y-109302438D02*
X129738095Y-109350057D01*
X129738095Y-109350057D02*
X129785714Y-109445295D01*
X129785714Y-109445295D02*
X129785714Y-109540533D01*
X129785714Y-109540533D02*
X129738095Y-109683390D01*
X129738095Y-109683390D02*
X129166667Y-110254819D01*
X129166667Y-110254819D02*
X129785714Y-110254819D01*
%TO.C,D3*%
D12*
X135790000Y-95450000D02*
X142800000Y-95450000D01*
X135790000Y-92150000D02*
X142800000Y-92150000D01*
X135790000Y-92150000D02*
X135790000Y-95450000D01*
%TO.C,R6*%
X138372936Y-97735000D02*
X138827064Y-97735000D01*
X138372936Y-96265000D02*
X138827064Y-96265000D01*
%TO.C,C2*%
X132265000Y-97376248D02*
X132265000Y-97898752D01*
X133735000Y-97376248D02*
X133735000Y-97898752D01*
%TO.C,J1*%
X114280000Y-104060000D02*
X124320000Y-104060000D01*
X114280000Y-114460000D02*
X114280000Y-104060000D01*
X117300000Y-114460000D02*
X117300000Y-104060000D01*
X122200000Y-114460000D02*
X122200000Y-104060000D01*
X123700000Y-114460000D02*
X123700000Y-104060000D01*
X124320000Y-104060000D02*
X124320000Y-111500000D01*
X124320000Y-112100000D02*
X124320000Y-114460000D01*
X124320000Y-114460000D02*
X114280000Y-114460000D01*
X124320000Y-111800000D02*
X124930000Y-111360000D01*
X124930000Y-112240000D01*
X124320000Y-111800000D01*
G36*
X124930000Y-112240000D02*
G01*
X124320000Y-111800000D01*
X124930000Y-111360000D01*
X124930000Y-112240000D01*
G37*
%TO.C,R1*%
X131772936Y-112865000D02*
X132227064Y-112865000D01*
X131772936Y-114335000D02*
X132227064Y-114335000D01*
%TO.C,C5*%
X169652677Y-94925000D02*
X170652677Y-94925000D01*
X170152677Y-94425000D02*
X170152677Y-95425000D01*
X175132323Y-92720000D02*
X175132323Y-102880000D01*
X175172323Y-92720000D02*
X175172323Y-102880000D01*
X175212323Y-92721000D02*
X175212323Y-102879000D01*
X175252323Y-92721000D02*
X175252323Y-102879000D01*
X175292323Y-92723000D02*
X175292323Y-102877000D01*
X175332323Y-92724000D02*
X175332323Y-102876000D01*
X175372323Y-92726000D02*
X175372323Y-102874000D01*
X175412323Y-92728000D02*
X175412323Y-102872000D01*
X175452323Y-92730000D02*
X175452323Y-102870000D01*
X175492323Y-92733000D02*
X175492323Y-102867000D01*
X175532323Y-92736000D02*
X175532323Y-102864000D01*
X175572323Y-92739000D02*
X175572323Y-102861000D01*
X175612323Y-92743000D02*
X175612323Y-102857000D01*
X175652323Y-92746000D02*
X175652323Y-102854000D01*
X175692323Y-92751000D02*
X175692323Y-102849000D01*
X175732323Y-92755000D02*
X175732323Y-102845000D01*
X175772323Y-92760000D02*
X175772323Y-102840000D01*
X175812323Y-92765000D02*
X175812323Y-102835000D01*
X175852323Y-92771000D02*
X175852323Y-102829000D01*
X175892323Y-92777000D02*
X175892323Y-102823000D01*
X175932323Y-92783000D02*
X175932323Y-102817000D01*
X175972323Y-92789000D02*
X175972323Y-102811000D01*
X176012323Y-92796000D02*
X176012323Y-102804000D01*
X176052323Y-92803000D02*
X176052323Y-102797000D01*
X176092323Y-92811000D02*
X176092323Y-102789000D01*
X176132323Y-92819000D02*
X176132323Y-102781000D01*
X176172323Y-92827000D02*
X176172323Y-102773000D01*
X176212323Y-92835000D02*
X176212323Y-102765000D01*
X176252323Y-92844000D02*
X176252323Y-102756000D01*
X176292323Y-92853000D02*
X176292323Y-102747000D01*
X176332323Y-92863000D02*
X176332323Y-102737000D01*
X176372323Y-92872000D02*
X176372323Y-102728000D01*
X176412323Y-92883000D02*
X176412323Y-96560000D01*
X176412323Y-99040000D02*
X176412323Y-102717000D01*
X176452323Y-92893000D02*
X176452323Y-96560000D01*
X176452323Y-99040000D02*
X176452323Y-102707000D01*
X176492323Y-92904000D02*
X176492323Y-96560000D01*
X176492323Y-99040000D02*
X176492323Y-102696000D01*
X176532323Y-92915000D02*
X176532323Y-96560000D01*
X176532323Y-99040000D02*
X176532323Y-102685000D01*
X176572323Y-92927000D02*
X176572323Y-96560000D01*
X176572323Y-99040000D02*
X176572323Y-102673000D01*
X176612323Y-92939000D02*
X176612323Y-96560000D01*
X176612323Y-99040000D02*
X176612323Y-102661000D01*
X176652323Y-92951000D02*
X176652323Y-96560000D01*
X176652323Y-99040000D02*
X176652323Y-102649000D01*
X176692323Y-92963000D02*
X176692323Y-96560000D01*
X176692323Y-99040000D02*
X176692323Y-102637000D01*
X176732323Y-92976000D02*
X176732323Y-96560000D01*
X176732323Y-99040000D02*
X176732323Y-102624000D01*
X176772323Y-92990000D02*
X176772323Y-96560000D01*
X176772323Y-99040000D02*
X176772323Y-102610000D01*
X176812323Y-93003000D02*
X176812323Y-96560000D01*
X176812323Y-99040000D02*
X176812323Y-102597000D01*
X176852323Y-93018000D02*
X176852323Y-96560000D01*
X176852323Y-99040000D02*
X176852323Y-102582000D01*
X176892323Y-93032000D02*
X176892323Y-96560000D01*
X176892323Y-99040000D02*
X176892323Y-102568000D01*
X176932323Y-93047000D02*
X176932323Y-96560000D01*
X176932323Y-99040000D02*
X176932323Y-102553000D01*
X176972323Y-93062000D02*
X176972323Y-96560000D01*
X176972323Y-99040000D02*
X176972323Y-102538000D01*
X177012323Y-93078000D02*
X177012323Y-96560000D01*
X177012323Y-99040000D02*
X177012323Y-102522000D01*
X177052323Y-93094000D02*
X177052323Y-96560000D01*
X177052323Y-99040000D02*
X177052323Y-102506000D01*
X177092323Y-93110000D02*
X177092323Y-96560000D01*
X177092323Y-99040000D02*
X177092323Y-102490000D01*
X177132323Y-93127000D02*
X177132323Y-96560000D01*
X177132323Y-99040000D02*
X177132323Y-102473000D01*
X177172323Y-93144000D02*
X177172323Y-96560000D01*
X177172323Y-99040000D02*
X177172323Y-102456000D01*
X177212323Y-93162000D02*
X177212323Y-96560000D01*
X177212323Y-99040000D02*
X177212323Y-102438000D01*
X177252323Y-93180000D02*
X177252323Y-96560000D01*
X177252323Y-99040000D02*
X177252323Y-102420000D01*
X177292323Y-93198000D02*
X177292323Y-96560000D01*
X177292323Y-99040000D02*
X177292323Y-102402000D01*
X177332323Y-93217000D02*
X177332323Y-96560000D01*
X177332323Y-99040000D02*
X177332323Y-102383000D01*
X177372323Y-93236000D02*
X177372323Y-96560000D01*
X177372323Y-99040000D02*
X177372323Y-102364000D01*
X177412323Y-93256000D02*
X177412323Y-96560000D01*
X177412323Y-99040000D02*
X177412323Y-102344000D01*
X177452323Y-93276000D02*
X177452323Y-96560000D01*
X177452323Y-99040000D02*
X177452323Y-102324000D01*
X177492323Y-93296000D02*
X177492323Y-96560000D01*
X177492323Y-99040000D02*
X177492323Y-102304000D01*
X177532323Y-93317000D02*
X177532323Y-96560000D01*
X177532323Y-99040000D02*
X177532323Y-102283000D01*
X177572323Y-93339000D02*
X177572323Y-96560000D01*
X177572323Y-99040000D02*
X177572323Y-102261000D01*
X177612323Y-93361000D02*
X177612323Y-96560000D01*
X177612323Y-99040000D02*
X177612323Y-102239000D01*
X177652323Y-93383000D02*
X177652323Y-96560000D01*
X177652323Y-99040000D02*
X177652323Y-102217000D01*
X177692323Y-93406000D02*
X177692323Y-96560000D01*
X177692323Y-99040000D02*
X177692323Y-102194000D01*
X177732323Y-93429000D02*
X177732323Y-96560000D01*
X177732323Y-99040000D02*
X177732323Y-102171000D01*
X177772323Y-93453000D02*
X177772323Y-96560000D01*
X177772323Y-99040000D02*
X177772323Y-102147000D01*
X177812323Y-93477000D02*
X177812323Y-96560000D01*
X177812323Y-99040000D02*
X177812323Y-102123000D01*
X177852323Y-93502000D02*
X177852323Y-96560000D01*
X177852323Y-99040000D02*
X177852323Y-102098000D01*
X177892323Y-93528000D02*
X177892323Y-96560000D01*
X177892323Y-99040000D02*
X177892323Y-102072000D01*
X177932323Y-93553000D02*
X177932323Y-96560000D01*
X177932323Y-99040000D02*
X177932323Y-102047000D01*
X177972323Y-93580000D02*
X177972323Y-96560000D01*
X177972323Y-99040000D02*
X177972323Y-102020000D01*
X178012323Y-93607000D02*
X178012323Y-96560000D01*
X178012323Y-99040000D02*
X178012323Y-101993000D01*
X178052323Y-93634000D02*
X178052323Y-96560000D01*
X178052323Y-99040000D02*
X178052323Y-101966000D01*
X178092323Y-93662000D02*
X178092323Y-96560000D01*
X178092323Y-99040000D02*
X178092323Y-101938000D01*
X178132323Y-93691000D02*
X178132323Y-96560000D01*
X178132323Y-99040000D02*
X178132323Y-101909000D01*
X178172323Y-93720000D02*
X178172323Y-96560000D01*
X178172323Y-99040000D02*
X178172323Y-101880000D01*
X178212323Y-93750000D02*
X178212323Y-96560000D01*
X178212323Y-99040000D02*
X178212323Y-101850000D01*
X178252323Y-93780000D02*
X178252323Y-96560000D01*
X178252323Y-99040000D02*
X178252323Y-101820000D01*
X178292323Y-93812000D02*
X178292323Y-96560000D01*
X178292323Y-99040000D02*
X178292323Y-101788000D01*
X178332323Y-93843000D02*
X178332323Y-96560000D01*
X178332323Y-99040000D02*
X178332323Y-101757000D01*
X178372323Y-93876000D02*
X178372323Y-96560000D01*
X178372323Y-99040000D02*
X178372323Y-101724000D01*
X178412323Y-93909000D02*
X178412323Y-96560000D01*
X178412323Y-99040000D02*
X178412323Y-101691000D01*
X178452323Y-93942000D02*
X178452323Y-96560000D01*
X178452323Y-99040000D02*
X178452323Y-101658000D01*
X178492323Y-93977000D02*
X178492323Y-96560000D01*
X178492323Y-99040000D02*
X178492323Y-101623000D01*
X178532323Y-94012000D02*
X178532323Y-96560000D01*
X178532323Y-99040000D02*
X178532323Y-101588000D01*
X178572323Y-94048000D02*
X178572323Y-96560000D01*
X178572323Y-99040000D02*
X178572323Y-101552000D01*
X178612323Y-94084000D02*
X178612323Y-96560000D01*
X178612323Y-99040000D02*
X178612323Y-101516000D01*
X178652323Y-94122000D02*
X178652323Y-96560000D01*
X178652323Y-99040000D02*
X178652323Y-101478000D01*
X178692323Y-94160000D02*
X178692323Y-96560000D01*
X178692323Y-99040000D02*
X178692323Y-101440000D01*
X178732323Y-94199000D02*
X178732323Y-96560000D01*
X178732323Y-99040000D02*
X178732323Y-101401000D01*
X178772323Y-94239000D02*
X178772323Y-96560000D01*
X178772323Y-99040000D02*
X178772323Y-101361000D01*
X178812323Y-94280000D02*
X178812323Y-96560000D01*
X178812323Y-99040000D02*
X178812323Y-101320000D01*
X178852323Y-94322000D02*
X178852323Y-96560000D01*
X178852323Y-99040000D02*
X178852323Y-101278000D01*
X178892323Y-94365000D02*
X178892323Y-101235000D01*
X178932323Y-94409000D02*
X178932323Y-101191000D01*
X178972323Y-94453000D02*
X178972323Y-101147000D01*
X179012323Y-94499000D02*
X179012323Y-101101000D01*
X179052323Y-94546000D02*
X179052323Y-101054000D01*
X179092323Y-94595000D02*
X179092323Y-101005000D01*
X179132323Y-94644000D02*
X179132323Y-100956000D01*
X179172323Y-94695000D02*
X179172323Y-100905000D01*
X179212323Y-94747000D02*
X179212323Y-100853000D01*
X179252323Y-94800000D02*
X179252323Y-100800000D01*
X179292323Y-94855000D02*
X179292323Y-100745000D01*
X179332323Y-94912000D02*
X179332323Y-100688000D01*
X179372323Y-94970000D02*
X179372323Y-100630000D01*
X179412323Y-95030000D02*
X179412323Y-100570000D01*
X179452323Y-95092000D02*
X179452323Y-100508000D01*
X179492323Y-95156000D02*
X179492323Y-100444000D01*
X179532323Y-95222000D02*
X179532323Y-100378000D01*
X179572323Y-95290000D02*
X179572323Y-100310000D01*
X179612323Y-95361000D02*
X179612323Y-100239000D01*
X179652323Y-95435000D02*
X179652323Y-100165000D01*
X179692323Y-95512000D02*
X179692323Y-100088000D01*
X179732323Y-95592000D02*
X179732323Y-100008000D01*
X179772323Y-95676000D02*
X179772323Y-99924000D01*
X179812323Y-95763000D02*
X179812323Y-99837000D01*
X179852323Y-95856000D02*
X179852323Y-99744000D01*
X179892323Y-95954000D02*
X179892323Y-99646000D01*
X179932323Y-96058000D02*
X179932323Y-99542000D01*
X179972323Y-96170000D02*
X179972323Y-99430000D01*
X180012323Y-96291000D02*
X180012323Y-99309000D01*
X180052323Y-96423000D02*
X180052323Y-99177000D01*
X180092323Y-96570000D02*
X180092323Y-99030000D01*
X180132323Y-96738000D02*
X180132323Y-98862000D01*
X180172323Y-96938000D02*
X180172323Y-98662000D01*
X180212323Y-97201000D02*
X180212323Y-98399000D01*
X180252323Y-97800000D02*
G75*
G02*
X170012323Y-97800000I-5120000J0D01*
G01*
X170012323Y-97800000D02*
G75*
G02*
X180252323Y-97800000I5120000J0D01*
G01*
%TO.C,C1*%
X132261252Y-106665000D02*
X131738748Y-106665000D01*
X132261252Y-108135000D02*
X131738748Y-108135000D01*
%TO.C,J2*%
X114280000Y-91980000D02*
X124320000Y-91980000D01*
X114280000Y-102380000D02*
X114280000Y-91980000D01*
X117300000Y-102380000D02*
X117300000Y-91980000D01*
X122200000Y-102380000D02*
X122200000Y-91980000D01*
X123700000Y-102380000D02*
X123700000Y-91980000D01*
X124320000Y-91980000D02*
X124320000Y-99420000D01*
X124320000Y-100020000D02*
X124320000Y-102380000D01*
X124320000Y-102380000D02*
X114280000Y-102380000D01*
X124320000Y-99720000D02*
X124930000Y-99280000D01*
X124930000Y-100160000D01*
X124320000Y-99720000D01*
G36*
X124930000Y-100160000D02*
G01*
X124320000Y-99720000D01*
X124930000Y-99280000D01*
X124930000Y-100160000D01*
G37*
%TO.C,J3*%
X182052500Y-104060000D02*
X192092500Y-104060000D01*
X182052500Y-114460000D02*
X182052500Y-104060000D01*
X185072500Y-114460000D02*
X185072500Y-104060000D01*
X189972500Y-114460000D02*
X189972500Y-104060000D01*
X191472500Y-114460000D02*
X191472500Y-104060000D01*
X192092500Y-104060000D02*
X192092500Y-111500000D01*
X192092500Y-112100000D02*
X192092500Y-114460000D01*
X192092500Y-114460000D02*
X182052500Y-114460000D01*
X192092500Y-111800000D02*
X192702500Y-111360000D01*
X192702500Y-112240000D01*
X192092500Y-111800000D01*
G36*
X192702500Y-112240000D02*
G01*
X192092500Y-111800000D01*
X192702500Y-111360000D01*
X192702500Y-112240000D01*
G37*
%TO.C,R8*%
X174265000Y-110372936D02*
X174265000Y-110827064D01*
X175735000Y-110372936D02*
X175735000Y-110827064D01*
%TO.C,R4*%
X146065000Y-95172936D02*
X146065000Y-95627064D01*
X147535000Y-95172936D02*
X147535000Y-95627064D01*
%TO.C,R3*%
X146065000Y-111072936D02*
X146065000Y-111527064D01*
X147535000Y-111072936D02*
X147535000Y-111527064D01*
%TO.C,U1*%
X129865000Y-100935000D02*
X133985000Y-100935000D01*
X129865000Y-101030000D02*
X129865000Y-100935000D01*
X129865000Y-106055000D02*
X129865000Y-105960000D01*
X133985000Y-100935000D02*
X133985000Y-101030000D01*
X133985000Y-105960000D02*
X133985000Y-106055000D01*
X133985000Y-106055000D02*
X129865000Y-106055000D01*
X129325000Y-101025000D02*
X129085000Y-100695000D01*
X129565000Y-100695000D01*
X129325000Y-101025000D01*
G36*
X129325000Y-101025000D02*
G01*
X129085000Y-100695000D01*
X129565000Y-100695000D01*
X129325000Y-101025000D01*
G37*
%TO.C,Q1*%
X148940000Y-91830000D02*
X153560000Y-91830000D01*
X148940000Y-102050000D02*
X148940000Y-91830000D01*
X152180000Y-91830000D02*
X152180000Y-102050000D01*
X153560000Y-91830000D02*
X153560000Y-102050000D01*
X153560000Y-95090000D02*
X152180000Y-95090000D01*
X153560000Y-98790000D02*
X152180000Y-98790000D01*
X153560000Y-102050000D02*
X148940000Y-102050000D01*
%TO.C,R7*%
X174772936Y-105865000D02*
X175227064Y-105865000D01*
X174772936Y-107335000D02*
X175227064Y-107335000D01*
%TO.C,L1*%
X157957500Y-91935000D02*
X168397500Y-91935000D01*
X157957500Y-102066000D02*
X157957500Y-91935000D01*
X157957500Y-114575000D02*
X157957500Y-104444000D01*
X168397500Y-91935000D02*
X168397500Y-102066000D01*
X168397500Y-104444000D02*
X168397500Y-114575000D01*
X168397500Y-114575000D02*
X157957500Y-114575000D01*
%TO.C,C3*%
X129865000Y-97376248D02*
X129865000Y-97898752D01*
X131335000Y-97376248D02*
X131335000Y-97898752D01*
%TO.C,Q2*%
X148940000Y-104290000D02*
X153560000Y-104290000D01*
X148940000Y-114510000D02*
X148940000Y-104290000D01*
X152180000Y-104290000D02*
X152180000Y-114510000D01*
X153560000Y-104290000D02*
X153560000Y-114510000D01*
X153560000Y-107550000D02*
X152180000Y-107550000D01*
X153560000Y-111250000D02*
X152180000Y-111250000D01*
X153560000Y-114510000D02*
X148940000Y-114510000D01*
%TO.C,C4*%
X141060000Y-104712323D02*
X137383000Y-104712323D01*
X141060000Y-104752323D02*
X137393000Y-104752323D01*
X141060000Y-104792323D02*
X137404000Y-104792323D01*
X141060000Y-104832323D02*
X137415000Y-104832323D01*
X141060000Y-104872323D02*
X137427000Y-104872323D01*
X141060000Y-104912323D02*
X137439000Y-104912323D01*
X141060000Y-104952323D02*
X137451000Y-104952323D01*
X141060000Y-104992323D02*
X137463000Y-104992323D01*
X141060000Y-105032323D02*
X137476000Y-105032323D01*
X141060000Y-105072323D02*
X137490000Y-105072323D01*
X141060000Y-105112323D02*
X137503000Y-105112323D01*
X141060000Y-105152323D02*
X137518000Y-105152323D01*
X141060000Y-105192323D02*
X137532000Y-105192323D01*
X141060000Y-105232323D02*
X137547000Y-105232323D01*
X141060000Y-105272323D02*
X137562000Y-105272323D01*
X141060000Y-105312323D02*
X137578000Y-105312323D01*
X141060000Y-105352323D02*
X137594000Y-105352323D01*
X141060000Y-105392323D02*
X137610000Y-105392323D01*
X141060000Y-105432323D02*
X137627000Y-105432323D01*
X141060000Y-105472323D02*
X137644000Y-105472323D01*
X141060000Y-105512323D02*
X137662000Y-105512323D01*
X141060000Y-105552323D02*
X137680000Y-105552323D01*
X141060000Y-105592323D02*
X137698000Y-105592323D01*
X141060000Y-105632323D02*
X137717000Y-105632323D01*
X141060000Y-105672323D02*
X137736000Y-105672323D01*
X141060000Y-105712323D02*
X137756000Y-105712323D01*
X141060000Y-105752323D02*
X137776000Y-105752323D01*
X141060000Y-105792323D02*
X137796000Y-105792323D01*
X141060000Y-105832323D02*
X137817000Y-105832323D01*
X141060000Y-105872323D02*
X137839000Y-105872323D01*
X141060000Y-105912323D02*
X137861000Y-105912323D01*
X141060000Y-105952323D02*
X137883000Y-105952323D01*
X141060000Y-105992323D02*
X137906000Y-105992323D01*
X141060000Y-106032323D02*
X137929000Y-106032323D01*
X141060000Y-106072323D02*
X137953000Y-106072323D01*
X141060000Y-106112323D02*
X137977000Y-106112323D01*
X141060000Y-106152323D02*
X138002000Y-106152323D01*
X141060000Y-106192323D02*
X138028000Y-106192323D01*
X141060000Y-106232323D02*
X138053000Y-106232323D01*
X141060000Y-106272323D02*
X138080000Y-106272323D01*
X141060000Y-106312323D02*
X138107000Y-106312323D01*
X141060000Y-106352323D02*
X138134000Y-106352323D01*
X141060000Y-106392323D02*
X138162000Y-106392323D01*
X141060000Y-106432323D02*
X138191000Y-106432323D01*
X141060000Y-106472323D02*
X138220000Y-106472323D01*
X141060000Y-106512323D02*
X138250000Y-106512323D01*
X141060000Y-106552323D02*
X138280000Y-106552323D01*
X141060000Y-106592323D02*
X138312000Y-106592323D01*
X141060000Y-106632323D02*
X138343000Y-106632323D01*
X141060000Y-106672323D02*
X138376000Y-106672323D01*
X141060000Y-106712323D02*
X138409000Y-106712323D01*
X141060000Y-106752323D02*
X138442000Y-106752323D01*
X141060000Y-106792323D02*
X138477000Y-106792323D01*
X141060000Y-106832323D02*
X138512000Y-106832323D01*
X141060000Y-106872323D02*
X138548000Y-106872323D01*
X141060000Y-106912323D02*
X138584000Y-106912323D01*
X141060000Y-106952323D02*
X138622000Y-106952323D01*
X141060000Y-106992323D02*
X138660000Y-106992323D01*
X141060000Y-107032323D02*
X138699000Y-107032323D01*
X141060000Y-107072323D02*
X138739000Y-107072323D01*
X141060000Y-107112323D02*
X138780000Y-107112323D01*
X141060000Y-107152323D02*
X138822000Y-107152323D01*
X142899000Y-108512323D02*
X141701000Y-108512323D01*
X143162000Y-108472323D02*
X141438000Y-108472323D01*
X143362000Y-108432323D02*
X141238000Y-108432323D01*
X143530000Y-108392323D02*
X141070000Y-108392323D01*
X143677000Y-108352323D02*
X140923000Y-108352323D01*
X143809000Y-108312323D02*
X140791000Y-108312323D01*
X143930000Y-108272323D02*
X140670000Y-108272323D01*
X144042000Y-108232323D02*
X140558000Y-108232323D01*
X144146000Y-108192323D02*
X140454000Y-108192323D01*
X144244000Y-108152323D02*
X140356000Y-108152323D01*
X144337000Y-108112323D02*
X140263000Y-108112323D01*
X144424000Y-108072323D02*
X140176000Y-108072323D01*
X144508000Y-108032323D02*
X140092000Y-108032323D01*
X144588000Y-107992323D02*
X140012000Y-107992323D01*
X144665000Y-107952323D02*
X139935000Y-107952323D01*
X144739000Y-107912323D02*
X139861000Y-107912323D01*
X144810000Y-107872323D02*
X139790000Y-107872323D01*
X144878000Y-107832323D02*
X139722000Y-107832323D01*
X144944000Y-107792323D02*
X139656000Y-107792323D01*
X145008000Y-107752323D02*
X139592000Y-107752323D01*
X145070000Y-107712323D02*
X139530000Y-107712323D01*
X145130000Y-107672323D02*
X139470000Y-107672323D01*
X145175000Y-97952677D02*
X145175000Y-98952677D01*
X145188000Y-107632323D02*
X139412000Y-107632323D01*
X145245000Y-107592323D02*
X139355000Y-107592323D01*
X145300000Y-107552323D02*
X139300000Y-107552323D01*
X145353000Y-107512323D02*
X139247000Y-107512323D01*
X145405000Y-107472323D02*
X139195000Y-107472323D01*
X145456000Y-107432323D02*
X139144000Y-107432323D01*
X145505000Y-107392323D02*
X139095000Y-107392323D01*
X145554000Y-107352323D02*
X139046000Y-107352323D01*
X145601000Y-107312323D02*
X138999000Y-107312323D01*
X145647000Y-107272323D02*
X138953000Y-107272323D01*
X145675000Y-98452677D02*
X144675000Y-98452677D01*
X145691000Y-107232323D02*
X138909000Y-107232323D01*
X145735000Y-107192323D02*
X138865000Y-107192323D01*
X145778000Y-107152323D02*
X143540000Y-107152323D01*
X145820000Y-107112323D02*
X143540000Y-107112323D01*
X145861000Y-107072323D02*
X143540000Y-107072323D01*
X145901000Y-107032323D02*
X143540000Y-107032323D01*
X145940000Y-106992323D02*
X143540000Y-106992323D01*
X145978000Y-106952323D02*
X143540000Y-106952323D01*
X146016000Y-106912323D02*
X143540000Y-106912323D01*
X146052000Y-106872323D02*
X143540000Y-106872323D01*
X146088000Y-106832323D02*
X143540000Y-106832323D01*
X146123000Y-106792323D02*
X143540000Y-106792323D01*
X146158000Y-106752323D02*
X143540000Y-106752323D01*
X146191000Y-106712323D02*
X143540000Y-106712323D01*
X146224000Y-106672323D02*
X143540000Y-106672323D01*
X146257000Y-106632323D02*
X143540000Y-106632323D01*
X146288000Y-106592323D02*
X143540000Y-106592323D01*
X146320000Y-106552323D02*
X143540000Y-106552323D01*
X146350000Y-106512323D02*
X143540000Y-106512323D01*
X146380000Y-106472323D02*
X143540000Y-106472323D01*
X146409000Y-106432323D02*
X143540000Y-106432323D01*
X146438000Y-106392323D02*
X143540000Y-106392323D01*
X146466000Y-106352323D02*
X143540000Y-106352323D01*
X146493000Y-106312323D02*
X143540000Y-106312323D01*
X146520000Y-106272323D02*
X143540000Y-106272323D01*
X146547000Y-106232323D02*
X143540000Y-106232323D01*
X146572000Y-106192323D02*
X143540000Y-106192323D01*
X146598000Y-106152323D02*
X143540000Y-106152323D01*
X146623000Y-106112323D02*
X143540000Y-106112323D01*
X146647000Y-106072323D02*
X143540000Y-106072323D01*
X146671000Y-106032323D02*
X143540000Y-106032323D01*
X146694000Y-105992323D02*
X143540000Y-105992323D01*
X146717000Y-105952323D02*
X143540000Y-105952323D01*
X146739000Y-105912323D02*
X143540000Y-105912323D01*
X146761000Y-105872323D02*
X143540000Y-105872323D01*
X146783000Y-105832323D02*
X143540000Y-105832323D01*
X146804000Y-105792323D02*
X143540000Y-105792323D01*
X146824000Y-105752323D02*
X143540000Y-105752323D01*
X146844000Y-105712323D02*
X143540000Y-105712323D01*
X146864000Y-105672323D02*
X143540000Y-105672323D01*
X146883000Y-105632323D02*
X143540000Y-105632323D01*
X146902000Y-105592323D02*
X143540000Y-105592323D01*
X146920000Y-105552323D02*
X143540000Y-105552323D01*
X146938000Y-105512323D02*
X143540000Y-105512323D01*
X146956000Y-105472323D02*
X143540000Y-105472323D01*
X146973000Y-105432323D02*
X143540000Y-105432323D01*
X146990000Y-105392323D02*
X143540000Y-105392323D01*
X147006000Y-105352323D02*
X143540000Y-105352323D01*
X147022000Y-105312323D02*
X143540000Y-105312323D01*
X147038000Y-105272323D02*
X143540000Y-105272323D01*
X147053000Y-105232323D02*
X143540000Y-105232323D01*
X147068000Y-105192323D02*
X143540000Y-105192323D01*
X147082000Y-105152323D02*
X143540000Y-105152323D01*
X147097000Y-105112323D02*
X143540000Y-105112323D01*
X147110000Y-105072323D02*
X143540000Y-105072323D01*
X147124000Y-105032323D02*
X143540000Y-105032323D01*
X147137000Y-104992323D02*
X143540000Y-104992323D01*
X147149000Y-104952323D02*
X143540000Y-104952323D01*
X147161000Y-104912323D02*
X143540000Y-104912323D01*
X147173000Y-104872323D02*
X143540000Y-104872323D01*
X147185000Y-104832323D02*
X143540000Y-104832323D01*
X147196000Y-104792323D02*
X143540000Y-104792323D01*
X147207000Y-104752323D02*
X143540000Y-104752323D01*
X147217000Y-104712323D02*
X143540000Y-104712323D01*
X147228000Y-104672323D02*
X137372000Y-104672323D01*
X147237000Y-104632323D02*
X137363000Y-104632323D01*
X147247000Y-104592323D02*
X137353000Y-104592323D01*
X147256000Y-104552323D02*
X137344000Y-104552323D01*
X147265000Y-104512323D02*
X137335000Y-104512323D01*
X147273000Y-104472323D02*
X137327000Y-104472323D01*
X147281000Y-104432323D02*
X137319000Y-104432323D01*
X147289000Y-104392323D02*
X137311000Y-104392323D01*
X147297000Y-104352323D02*
X137303000Y-104352323D01*
X147304000Y-104312323D02*
X137296000Y-104312323D01*
X147311000Y-104272323D02*
X137289000Y-104272323D01*
X147317000Y-104232323D02*
X137283000Y-104232323D01*
X147323000Y-104192323D02*
X137277000Y-104192323D01*
X147329000Y-104152323D02*
X137271000Y-104152323D01*
X147335000Y-104112323D02*
X137265000Y-104112323D01*
X147340000Y-104072323D02*
X137260000Y-104072323D01*
X147345000Y-104032323D02*
X137255000Y-104032323D01*
X147349000Y-103992323D02*
X137251000Y-103992323D01*
X147354000Y-103952323D02*
X137246000Y-103952323D01*
X147357000Y-103912323D02*
X137243000Y-103912323D01*
X147361000Y-103872323D02*
X137239000Y-103872323D01*
X147364000Y-103832323D02*
X137236000Y-103832323D01*
X147367000Y-103792323D02*
X137233000Y-103792323D01*
X147370000Y-103752323D02*
X137230000Y-103752323D01*
X147372000Y-103712323D02*
X137228000Y-103712323D01*
X147374000Y-103672323D02*
X137226000Y-103672323D01*
X147376000Y-103632323D02*
X137224000Y-103632323D01*
X147377000Y-103592323D02*
X137223000Y-103592323D01*
X147379000Y-103512323D02*
X137221000Y-103512323D01*
X147379000Y-103552323D02*
X137221000Y-103552323D01*
X147380000Y-103432323D02*
X137220000Y-103432323D01*
X147380000Y-103472323D02*
X137220000Y-103472323D01*
X147420000Y-103432323D02*
G75*
G02*
X137180000Y-103432323I-5120000J0D01*
G01*
X137180000Y-103432323D02*
G75*
G02*
X147420000Y-103432323I5120000J0D01*
G01*
%TO.C,D1*%
X135010000Y-92150000D02*
X128000000Y-92150000D01*
X135010000Y-95450000D02*
X128000000Y-95450000D01*
X135010000Y-95450000D02*
X135010000Y-92150000D01*
%TO.C,R5*%
X137072936Y-108565000D02*
X137527064Y-108565000D01*
X137072936Y-110035000D02*
X137527064Y-110035000D01*
%TO.C,D2*%
X135790000Y-111150000D02*
X135790000Y-114450000D01*
X135790000Y-111150000D02*
X142800000Y-111150000D01*
X135790000Y-114450000D02*
X142800000Y-114450000D01*
%TO.C,J4*%
X182052500Y-92005000D02*
X192092500Y-92005000D01*
X182052500Y-102405000D02*
X182052500Y-92005000D01*
X185072500Y-102405000D02*
X185072500Y-92005000D01*
X189972500Y-102405000D02*
X189972500Y-92005000D01*
X191472500Y-102405000D02*
X191472500Y-92005000D01*
X192092500Y-92005000D02*
X192092500Y-99445000D01*
X192092500Y-100045000D02*
X192092500Y-102405000D01*
X192092500Y-102405000D02*
X182052500Y-102405000D01*
X192092500Y-99745000D02*
X192702500Y-99305000D01*
X192702500Y-100185000D01*
X192092500Y-99745000D01*
G36*
X192702500Y-100185000D02*
G01*
X192092500Y-99745000D01*
X192702500Y-99305000D01*
X192702500Y-100185000D01*
G37*
%TO.C,R2*%
X131772936Y-110065000D02*
X132227064Y-110065000D01*
X131772936Y-111535000D02*
X132227064Y-111535000D01*
%TD*%
M02*
