%TF.GenerationSoftware,KiCad,Pcbnew,10.0.4*%
%TF.CreationDate,2026-09-29T07:34:34-04:00*%
%TF.ProjectId,Buck_Converter,4275636b-5f43-46f6-9e76-65727465722e,rev?*%
%TF.SameCoordinates,Original*%
%TF.FileFunction,Copper,L2,Bot*%
%TF.FilePolarity,Positive*%
%FSLAX46Y46*%
G04 Gerber Fmt 4.6, Leading zero omitted, Abs format (unit mm)*
G04 Created by KiCad (PCBNEW 10.0.4) date 2026-09-29 07:34:34*
%MOMM*%
%LPD*%
G01*
G04 APERTURE LIST*
G04 Aperture macros list*
%AMRoundRect*
0 Rectangle with rounded corners*
0 $1 Rounding radius*
0 $2 $3 $4 $5 $6 $7 $8 $9 X,Y pos of 4 corners*
0 Add a 4 corners polygon primitive as box body*
4,1,4,$2,$3,$4,$5,$6,$7,$8,$9,$2,$3,0*
0 Add four circle primitives for the rounded corners*
1,1,$1+$1,$2,$3*
1,1,$1+$1,$4,$5*
1,1,$1+$1,$6,$7*
1,1,$1+$1,$8,$9*
0 Add four rect primitives between the rounded corners*
20,1,$1+$1,$2,$3,$4,$5,0*
20,1,$1+$1,$4,$5,$6,$7,0*
20,1,$1+$1,$6,$7,$8,$9,0*
20,1,$1+$1,$8,$9,$2,$3,0*%
G04 Aperture macros list end*
%TA.AperFunction,ComponentPad*%
%ADD10RoundRect,0.250000X1.050000X-1.050000X1.050000X1.050000X-1.050000X1.050000X-1.050000X-1.050000X0*%
%TD*%
%TA.AperFunction,ComponentPad*%
%ADD11C,2.600000*%
%TD*%
%TA.AperFunction,ComponentPad*%
%ADD12RoundRect,0.250000X-0.750000X-0.750000X0.750000X-0.750000X0.750000X0.750000X-0.750000X0.750000X0*%
%TD*%
%TA.AperFunction,ComponentPad*%
%ADD13C,2.000000*%
%TD*%
%TA.AperFunction,ComponentPad*%
%ADD14R,2.000000X1.905000*%
%TD*%
%TA.AperFunction,ComponentPad*%
%ADD15O,2.000000X1.905000*%
%TD*%
%TA.AperFunction,ComponentPad*%
%ADD16C,3.000000*%
%TD*%
%TA.AperFunction,ComponentPad*%
%ADD17RoundRect,0.250000X-0.750000X0.750000X-0.750000X-0.750000X0.750000X-0.750000X0.750000X0.750000X0*%
%TD*%
%TA.AperFunction,ViaPad*%
%ADD18C,0.600000*%
%TD*%
G04 APERTURE END LIST*
D10*
%TO.P,J1,1,Pin_1_1*%
%TO.N,Net-(J1-Pin_1)*%
X119600000Y-111800000D03*
D11*
%TO.P,J1,2,Pin_2_2*%
%TO.N,Net-(J1-Pin_2)*%
X119600000Y-106720000D03*
%TD*%
D12*
%TO.P,C5,1*%
%TO.N,Net-(J4-Pin_2)*%
X172632323Y-97800000D03*
D13*
%TO.P,C5,2*%
%TO.N,GND*%
X177632323Y-97800000D03*
%TD*%
D10*
%TO.P,J2,1,Pin_1_1*%
%TO.N,GND*%
X119600000Y-99720000D03*
D11*
%TO.P,J2,2,Pin_2_2*%
%TO.N,+12V*%
X119600000Y-94640000D03*
%TD*%
D10*
%TO.P,J3,1,Pin_1_1*%
%TO.N,Net-(J3-Pin_1)*%
X187372500Y-111800000D03*
D11*
%TO.P,J3,2,Pin_2_2*%
X187372500Y-106720000D03*
%TD*%
D14*
%TO.P,Q1,1,G_1*%
%TO.N,Net-(D3-A)*%
X150300000Y-94400000D03*
D15*
%TO.P,Q1,2,D_2*%
%TO.N,+12V*%
X150300000Y-96940000D03*
%TO.P,Q1,3,S_3*%
%TO.N,Net-(Q1-S)*%
X150300000Y-99480000D03*
%TD*%
D16*
%TO.P,L1,1,1_1*%
%TO.N,Net-(Q1-S)*%
X159227500Y-103255000D03*
%TO.P,L1,2,2_2*%
%TO.N,Net-(J4-Pin_2)*%
X167127500Y-103255000D03*
%TD*%
D14*
%TO.P,Q2,1,G_1*%
%TO.N,Net-(D2-A)*%
X150300000Y-106860000D03*
D15*
%TO.P,Q2,2,D_2*%
%TO.N,Net-(Q1-S)*%
X150300000Y-109400000D03*
%TO.P,Q2,3,S_3*%
%TO.N,GND*%
X150300000Y-111940000D03*
%TD*%
D17*
%TO.P,C4,1*%
%TO.N,+12V*%
X142300000Y-100932323D03*
D13*
%TO.P,C4,2*%
%TO.N,GND*%
X142300000Y-105932323D03*
%TD*%
D10*
%TO.P,J4,1,Pin_1_1*%
%TO.N,GND*%
X187372500Y-99745000D03*
D11*
%TO.P,J4,2,Pin_2_2*%
%TO.N,Net-(J4-Pin_2)*%
X187372500Y-94665000D03*
%TD*%
D18*
%TO.N,GND*%
X134400000Y-110800000D03*
X175000000Y-113000000D03*
X134400000Y-113600000D03*
X131600000Y-105000000D03*
X146800000Y-113600000D03*
X131600000Y-105800000D03*
%TD*%
%TA.AperFunction,Conductor*%
%TO.N,GND*%
G36*
X192242539Y-88520185D02*
G01*
X192288294Y-88572989D01*
X192299500Y-88624500D01*
X192299500Y-114775500D01*
X192279815Y-114842539D01*
X192227011Y-114888294D01*
X192175500Y-114899500D01*
X114424500Y-114899500D01*
X114357461Y-114879815D01*
X114311706Y-114827011D01*
X114300500Y-114775500D01*
X114300500Y-110699983D01*
X117799500Y-110699983D01*
X117799500Y-112900001D01*
X117799501Y-112900018D01*
X117810000Y-113002796D01*
X117810001Y-113002799D01*
X117824947Y-113047902D01*
X117865186Y-113169334D01*
X117957288Y-113318656D01*
X118081344Y-113442712D01*
X118230666Y-113534814D01*
X118397203Y-113589999D01*
X118499991Y-113600500D01*
X120700008Y-113600499D01*
X120802797Y-113589999D01*
X120969334Y-113534814D01*
X121118656Y-113442712D01*
X121242712Y-113318656D01*
X121334814Y-113169334D01*
X121389999Y-113002797D01*
X121400500Y-112900009D01*
X121400500Y-112440000D01*
X148887711Y-112440000D01*
X148906413Y-112497560D01*
X148906416Y-112497566D01*
X149010211Y-112701276D01*
X149144597Y-112886242D01*
X149306257Y-113047902D01*
X149491223Y-113182288D01*
X149694936Y-113286085D01*
X149799999Y-113320222D01*
X150800000Y-113320222D01*
X150905063Y-113286085D01*
X151108776Y-113182288D01*
X151293742Y-113047902D01*
X151455402Y-112886242D01*
X151589788Y-112701276D01*
X151693583Y-112497566D01*
X151693586Y-112497560D01*
X151712288Y-112440000D01*
X150800000Y-112440000D01*
X150800000Y-113320222D01*
X149799999Y-113320222D01*
X149800000Y-113320221D01*
X149800000Y-112440000D01*
X148887711Y-112440000D01*
X121400500Y-112440000D01*
X121400499Y-111727708D01*
X121400499Y-110699998D01*
X121400498Y-110699981D01*
X121389999Y-110597203D01*
X121389998Y-110597200D01*
X121380981Y-110569989D01*
X121334814Y-110430666D01*
X121242712Y-110281344D01*
X121118656Y-110157288D01*
X120969334Y-110065186D01*
X120802797Y-110010001D01*
X120802795Y-110010000D01*
X120700010Y-109999500D01*
X118499998Y-109999500D01*
X118499981Y-109999501D01*
X118397203Y-110010000D01*
X118397200Y-110010001D01*
X118230668Y-110065185D01*
X118230663Y-110065187D01*
X118081342Y-110157289D01*
X117957289Y-110281342D01*
X117865187Y-110430663D01*
X117865186Y-110430666D01*
X117810001Y-110597203D01*
X117810001Y-110597204D01*
X117810000Y-110597204D01*
X117799500Y-110699983D01*
X114300500Y-110699983D01*
X114300500Y-106601995D01*
X117799500Y-106601995D01*
X117799500Y-106838004D01*
X117799501Y-106838020D01*
X117830306Y-107072010D01*
X117891394Y-107299993D01*
X117981714Y-107518045D01*
X117981719Y-107518056D01*
X118052677Y-107640957D01*
X118099727Y-107722450D01*
X118099729Y-107722453D01*
X118099730Y-107722454D01*
X118243406Y-107909697D01*
X118243412Y-107909704D01*
X118410295Y-108076587D01*
X118410301Y-108076592D01*
X118597550Y-108220273D01*
X118728918Y-108296118D01*
X118801943Y-108338280D01*
X118801948Y-108338282D01*
X118801951Y-108338284D01*
X119020007Y-108428606D01*
X119247986Y-108489693D01*
X119481989Y-108520500D01*
X119481996Y-108520500D01*
X119718004Y-108520500D01*
X119718011Y-108520500D01*
X119952014Y-108489693D01*
X120179993Y-108428606D01*
X120398049Y-108338284D01*
X120602450Y-108220273D01*
X120789699Y-108076592D01*
X120956592Y-107909699D01*
X121100273Y-107722450D01*
X121218284Y-107518049D01*
X121308606Y-107299993D01*
X121312291Y-107286242D01*
X141653184Y-107286242D01*
X141724197Y-107322425D01*
X141948752Y-107395388D01*
X141948751Y-107395388D01*
X142181948Y-107432323D01*
X142418052Y-107432323D01*
X142651247Y-107395388D01*
X142875797Y-107322427D01*
X142946814Y-107286242D01*
X142300001Y-106639429D01*
X142300000Y-106639429D01*
X141653184Y-107286242D01*
X121312291Y-107286242D01*
X121369693Y-107072014D01*
X121400500Y-106838011D01*
X121400500Y-106601989D01*
X121369693Y-106367986D01*
X121308606Y-106140007D01*
X121218284Y-105921951D01*
X121218282Y-105921948D01*
X121218280Y-105921943D01*
X121189099Y-105871400D01*
X121189098Y-105871399D01*
X121156114Y-105814270D01*
X140800000Y-105814270D01*
X140800000Y-106050375D01*
X140836934Y-106283570D01*
X140909898Y-106508128D01*
X140946078Y-106579136D01*
X140946079Y-106579137D01*
X141592894Y-105932323D01*
X141527068Y-105866497D01*
X141800000Y-105866497D01*
X141800000Y-105998149D01*
X141834075Y-106125316D01*
X141899901Y-106239330D01*
X141992993Y-106332422D01*
X142107007Y-106398248D01*
X142234174Y-106432323D01*
X142365826Y-106432323D01*
X142492993Y-106398248D01*
X142607007Y-106332422D01*
X142700099Y-106239330D01*
X142765925Y-106125316D01*
X142800000Y-105998149D01*
X142800000Y-105932322D01*
X143007106Y-105932322D01*
X143007106Y-105932323D01*
X143653919Y-106579137D01*
X143690104Y-106508120D01*
X143763065Y-106283570D01*
X143800000Y-106050375D01*
X143800000Y-105859635D01*
X148799500Y-105859635D01*
X148799500Y-107860370D01*
X148799501Y-107860376D01*
X148805908Y-107919983D01*
X148856202Y-108054828D01*
X148856206Y-108054835D01*
X148942452Y-108170044D01*
X148942455Y-108170047D01*
X149057664Y-108256293D01*
X149057669Y-108256296D01*
X149085539Y-108266690D01*
X149141473Y-108308561D01*
X149165891Y-108374024D01*
X149151040Y-108442298D01*
X149142525Y-108455759D01*
X149009783Y-108638461D01*
X148905950Y-108842244D01*
X148835278Y-109059750D01*
X148835278Y-109059753D01*
X148799500Y-109285646D01*
X148799500Y-109514353D01*
X148835278Y-109740246D01*
X148835278Y-109740249D01*
X148905950Y-109957755D01*
X148932571Y-110010001D01*
X149009783Y-110161538D01*
X149144214Y-110346566D01*
X149305934Y-110508286D01*
X149390864Y-110569991D01*
X149433529Y-110625321D01*
X149439508Y-110694935D01*
X149406902Y-110756730D01*
X149390864Y-110770627D01*
X149306257Y-110832097D01*
X149144597Y-110993757D01*
X149010211Y-111178723D01*
X148906416Y-111382433D01*
X148906413Y-111382439D01*
X148887711Y-111439999D01*
X148887712Y-111440000D01*
X150066026Y-111440000D01*
X149962292Y-111499890D01*
X149859890Y-111602292D01*
X149787482Y-111727708D01*
X149750000Y-111867591D01*
X149750000Y-112012409D01*
X149787482Y-112152292D01*
X149859890Y-112277708D01*
X149962292Y-112380110D01*
X150087708Y-112452518D01*
X150227591Y-112490000D01*
X150372409Y-112490000D01*
X150512292Y-112452518D01*
X150637708Y-112380110D01*
X150740110Y-112277708D01*
X150812518Y-112152292D01*
X150850000Y-112012409D01*
X150850000Y-111867591D01*
X150812518Y-111727708D01*
X150740110Y-111602292D01*
X150637708Y-111499890D01*
X150533974Y-111440000D01*
X151712288Y-111440000D01*
X151712288Y-111439999D01*
X151693586Y-111382439D01*
X151693583Y-111382433D01*
X151589788Y-111178723D01*
X151455402Y-110993757D01*
X151293741Y-110832096D01*
X151245645Y-110797152D01*
X151245645Y-110797151D01*
X151209136Y-110770626D01*
X151166470Y-110715296D01*
X151165155Y-110699983D01*
X185572000Y-110699983D01*
X185572000Y-112900001D01*
X185572001Y-112900018D01*
X185582500Y-113002796D01*
X185582501Y-113002799D01*
X185597447Y-113047902D01*
X185637686Y-113169334D01*
X185729788Y-113318656D01*
X185853844Y-113442712D01*
X186003166Y-113534814D01*
X186169703Y-113589999D01*
X186272491Y-113600500D01*
X188472508Y-113600499D01*
X188575297Y-113589999D01*
X188741834Y-113534814D01*
X188891156Y-113442712D01*
X189015212Y-113318656D01*
X189107314Y-113169334D01*
X189162499Y-113002797D01*
X189173000Y-112900009D01*
X189172999Y-110699992D01*
X189172482Y-110694935D01*
X189162499Y-110597203D01*
X189162498Y-110597200D01*
X189153481Y-110569989D01*
X189107314Y-110430666D01*
X189015212Y-110281344D01*
X188891156Y-110157288D01*
X188741834Y-110065186D01*
X188575297Y-110010001D01*
X188575295Y-110010000D01*
X188472510Y-109999500D01*
X186272498Y-109999500D01*
X186272481Y-109999501D01*
X186169703Y-110010000D01*
X186169700Y-110010001D01*
X186003168Y-110065185D01*
X186003163Y-110065187D01*
X185853842Y-110157289D01*
X185729789Y-110281342D01*
X185637687Y-110430663D01*
X185637686Y-110430666D01*
X185582501Y-110597203D01*
X185582501Y-110597204D01*
X185582500Y-110597204D01*
X185572000Y-110699983D01*
X151165155Y-110699983D01*
X151160491Y-110645683D01*
X151193097Y-110583888D01*
X151209125Y-110569999D01*
X151294066Y-110508286D01*
X151455786Y-110346566D01*
X151590217Y-110161538D01*
X151694048Y-109957758D01*
X151764722Y-109740245D01*
X151800500Y-109514354D01*
X151800500Y-109285646D01*
X151764722Y-109059755D01*
X151764721Y-109059751D01*
X151764721Y-109059750D01*
X151694049Y-108842244D01*
X151590216Y-108638461D01*
X151504512Y-108520500D01*
X151457472Y-108455755D01*
X151433994Y-108389953D01*
X151449819Y-108321899D01*
X151499925Y-108273204D01*
X151514455Y-108266692D01*
X151542331Y-108256296D01*
X151657546Y-108170046D01*
X151743796Y-108054831D01*
X151794091Y-107919983D01*
X151800500Y-107860373D01*
X151800499Y-106601995D01*
X185572000Y-106601995D01*
X185572000Y-106838004D01*
X185572001Y-106838020D01*
X185602806Y-107072010D01*
X185663894Y-107299993D01*
X185754214Y-107518045D01*
X185754219Y-107518056D01*
X185825177Y-107640957D01*
X185872227Y-107722450D01*
X185872229Y-107722453D01*
X185872230Y-107722454D01*
X186015906Y-107909697D01*
X186015912Y-107909704D01*
X186182795Y-108076587D01*
X186182801Y-108076592D01*
X186370050Y-108220273D01*
X186501418Y-108296118D01*
X186574443Y-108338280D01*
X186574448Y-108338282D01*
X186574451Y-108338284D01*
X186792507Y-108428606D01*
X187020486Y-108489693D01*
X187254489Y-108520500D01*
X187254496Y-108520500D01*
X187490504Y-108520500D01*
X187490511Y-108520500D01*
X187724514Y-108489693D01*
X187952493Y-108428606D01*
X188170549Y-108338284D01*
X188374950Y-108220273D01*
X188562199Y-108076592D01*
X188729092Y-107909699D01*
X188872773Y-107722450D01*
X188990784Y-107518049D01*
X189081106Y-107299993D01*
X189142193Y-107072014D01*
X189173000Y-106838011D01*
X189173000Y-106601989D01*
X189142193Y-106367986D01*
X189081106Y-106140007D01*
X188990784Y-105921951D01*
X188990782Y-105921948D01*
X188990780Y-105921943D01*
X188920385Y-105800017D01*
X188872773Y-105717550D01*
X188768052Y-105581075D01*
X188729093Y-105530302D01*
X188729087Y-105530295D01*
X188562204Y-105363412D01*
X188562197Y-105363406D01*
X188374954Y-105219730D01*
X188374953Y-105219729D01*
X188374950Y-105219727D01*
X188260065Y-105153398D01*
X188170556Y-105101719D01*
X188170545Y-105101714D01*
X187952493Y-105011394D01*
X187724510Y-104950306D01*
X187490520Y-104919501D01*
X187490517Y-104919500D01*
X187490511Y-104919500D01*
X187254489Y-104919500D01*
X187254483Y-104919500D01*
X187254479Y-104919501D01*
X187020489Y-104950306D01*
X186792506Y-105011394D01*
X186574454Y-105101714D01*
X186574443Y-105101719D01*
X186370045Y-105219730D01*
X186182802Y-105363406D01*
X186182795Y-105363412D01*
X186015912Y-105530295D01*
X186015906Y-105530302D01*
X185872230Y-105717545D01*
X185754219Y-105921943D01*
X185754214Y-105921954D01*
X185663894Y-106140006D01*
X185602806Y-106367989D01*
X185572001Y-106601979D01*
X185572000Y-106601995D01*
X151800499Y-106601995D01*
X151800499Y-105859628D01*
X151794091Y-105800017D01*
X151771456Y-105739330D01*
X151743797Y-105665171D01*
X151743793Y-105665164D01*
X151657547Y-105549955D01*
X151657544Y-105549952D01*
X151542335Y-105463706D01*
X151542328Y-105463702D01*
X151407482Y-105413408D01*
X151407483Y-105413408D01*
X151347883Y-105407001D01*
X151347881Y-105407000D01*
X151347873Y-105407000D01*
X151347864Y-105407000D01*
X149252129Y-105407000D01*
X149252123Y-105407001D01*
X149192516Y-105413408D01*
X149057671Y-105463702D01*
X149057664Y-105463706D01*
X148942455Y-105549952D01*
X148942452Y-105549955D01*
X148856206Y-105665164D01*
X148856202Y-105665171D01*
X148805908Y-105800017D01*
X148799501Y-105859616D01*
X148799501Y-105859623D01*
X148799500Y-105859635D01*
X143800000Y-105859635D01*
X143800000Y-105814270D01*
X143763065Y-105581075D01*
X143690102Y-105356520D01*
X143653919Y-105285507D01*
X143007106Y-105932322D01*
X142800000Y-105932322D01*
X142800000Y-105866497D01*
X142765925Y-105739330D01*
X142700099Y-105625316D01*
X142607007Y-105532224D01*
X142492993Y-105466398D01*
X142365826Y-105432323D01*
X142234174Y-105432323D01*
X142107007Y-105466398D01*
X141992993Y-105532224D01*
X141899901Y-105625316D01*
X141834075Y-105739330D01*
X141800000Y-105866497D01*
X141527068Y-105866497D01*
X140946078Y-105285507D01*
X140909894Y-105356525D01*
X140909894Y-105356526D01*
X140836934Y-105581074D01*
X140800000Y-105814270D01*
X121156114Y-105814270D01*
X121147885Y-105800017D01*
X121100273Y-105717550D01*
X121060076Y-105665164D01*
X120956593Y-105530302D01*
X120956587Y-105530295D01*
X120789704Y-105363412D01*
X120789697Y-105363406D01*
X120602454Y-105219730D01*
X120602453Y-105219729D01*
X120602450Y-105219727D01*
X120487565Y-105153398D01*
X120398056Y-105101719D01*
X120398045Y-105101714D01*
X120179993Y-105011394D01*
X119952010Y-104950306D01*
X119718020Y-104919501D01*
X119718017Y-104919500D01*
X119718011Y-104919500D01*
X119481989Y-104919500D01*
X119481983Y-104919500D01*
X119481979Y-104919501D01*
X119247989Y-104950306D01*
X119020006Y-105011394D01*
X118801954Y-105101714D01*
X118801943Y-105101719D01*
X118597545Y-105219730D01*
X118410302Y-105363406D01*
X118410295Y-105363412D01*
X118243412Y-105530295D01*
X118243406Y-105530302D01*
X118099730Y-105717545D01*
X117981719Y-105921943D01*
X117981714Y-105921954D01*
X117891394Y-106140006D01*
X117830306Y-106367989D01*
X117799501Y-106601979D01*
X117799500Y-106601995D01*
X114300500Y-106601995D01*
X114300500Y-104578401D01*
X141653184Y-104578401D01*
X142300000Y-105225217D01*
X142300001Y-105225217D01*
X142946814Y-104578402D01*
X142946813Y-104578401D01*
X142875805Y-104542221D01*
X142651247Y-104469257D01*
X142651248Y-104469257D01*
X142418052Y-104432323D01*
X142181948Y-104432323D01*
X141948751Y-104469257D01*
X141724203Y-104542217D01*
X141724202Y-104542217D01*
X141653184Y-104578401D01*
X114300500Y-104578401D01*
X114300500Y-103123872D01*
X157227000Y-103123872D01*
X157227000Y-103386127D01*
X157253623Y-103588339D01*
X157261230Y-103646116D01*
X157329102Y-103899418D01*
X157329105Y-103899428D01*
X157429453Y-104141690D01*
X157429458Y-104141700D01*
X157560575Y-104368803D01*
X157720218Y-104576851D01*
X157720226Y-104576860D01*
X157905640Y-104762274D01*
X157905648Y-104762281D01*
X158113696Y-104921924D01*
X158340799Y-105053041D01*
X158340809Y-105053046D01*
X158583071Y-105153394D01*
X158583081Y-105153398D01*
X158836384Y-105221270D01*
X159096380Y-105255500D01*
X159096387Y-105255500D01*
X159358613Y-105255500D01*
X159358620Y-105255500D01*
X159618616Y-105221270D01*
X159871919Y-105153398D01*
X160114197Y-105053043D01*
X160341303Y-104921924D01*
X160549351Y-104762282D01*
X160549355Y-104762277D01*
X160549360Y-104762274D01*
X160734774Y-104576860D01*
X160734777Y-104576855D01*
X160734782Y-104576851D01*
X160894424Y-104368803D01*
X161025543Y-104141697D01*
X161125898Y-103899419D01*
X161193770Y-103646116D01*
X161228000Y-103386120D01*
X161228000Y-103123880D01*
X161227999Y-103123872D01*
X165127000Y-103123872D01*
X165127000Y-103386127D01*
X165153623Y-103588339D01*
X165161230Y-103646116D01*
X165229102Y-103899418D01*
X165229105Y-103899428D01*
X165329453Y-104141690D01*
X165329458Y-104141700D01*
X165460575Y-104368803D01*
X165620218Y-104576851D01*
X165620226Y-104576860D01*
X165805640Y-104762274D01*
X165805648Y-104762281D01*
X166013696Y-104921924D01*
X166240799Y-105053041D01*
X166240809Y-105053046D01*
X166483071Y-105153394D01*
X166483081Y-105153398D01*
X166736384Y-105221270D01*
X166996380Y-105255500D01*
X166996387Y-105255500D01*
X167258613Y-105255500D01*
X167258620Y-105255500D01*
X167518616Y-105221270D01*
X167771919Y-105153398D01*
X168014197Y-105053043D01*
X168241303Y-104921924D01*
X168449351Y-104762282D01*
X168449355Y-104762277D01*
X168449360Y-104762274D01*
X168634774Y-104576860D01*
X168634777Y-104576855D01*
X168634782Y-104576851D01*
X168794424Y-104368803D01*
X168925543Y-104141697D01*
X169025898Y-103899419D01*
X169093770Y-103646116D01*
X169128000Y-103386120D01*
X169128000Y-103123880D01*
X169093770Y-102863884D01*
X169025898Y-102610581D01*
X169025894Y-102610571D01*
X168925546Y-102368309D01*
X168925541Y-102368299D01*
X168794424Y-102141196D01*
X168634781Y-101933148D01*
X168634774Y-101933140D01*
X168449360Y-101747726D01*
X168449351Y-101747718D01*
X168241303Y-101588075D01*
X168014200Y-101456958D01*
X168014190Y-101456953D01*
X167771928Y-101356605D01*
X167771921Y-101356603D01*
X167771919Y-101356602D01*
X167518616Y-101288730D01*
X167460839Y-101281123D01*
X167258627Y-101254500D01*
X167258620Y-101254500D01*
X166996380Y-101254500D01*
X166996372Y-101254500D01*
X166765272Y-101284926D01*
X166736384Y-101288730D01*
X166483081Y-101356602D01*
X166483071Y-101356605D01*
X166240809Y-101456953D01*
X166240799Y-101456958D01*
X166013696Y-101588075D01*
X165805648Y-101747718D01*
X165620218Y-101933148D01*
X165460575Y-102141196D01*
X165329458Y-102368299D01*
X165329453Y-102368309D01*
X165229105Y-102610571D01*
X165229102Y-102610581D01*
X165161230Y-102863885D01*
X165127000Y-103123872D01*
X161227999Y-103123872D01*
X161193770Y-102863884D01*
X161125898Y-102610581D01*
X161125894Y-102610571D01*
X161025546Y-102368309D01*
X161025541Y-102368299D01*
X160894424Y-102141196D01*
X160734781Y-101933148D01*
X160734774Y-101933140D01*
X160549360Y-101747726D01*
X160549351Y-101747718D01*
X160341303Y-101588075D01*
X160114200Y-101456958D01*
X160114190Y-101456953D01*
X159871928Y-101356605D01*
X159871921Y-101356603D01*
X159871919Y-101356602D01*
X159618616Y-101288730D01*
X159560839Y-101281123D01*
X159358627Y-101254500D01*
X159358620Y-101254500D01*
X159096380Y-101254500D01*
X159096372Y-101254500D01*
X158865272Y-101284926D01*
X158836384Y-101288730D01*
X158583081Y-101356602D01*
X158583071Y-101356605D01*
X158340809Y-101456953D01*
X158340799Y-101456958D01*
X158113696Y-101588075D01*
X157905648Y-101747718D01*
X157720218Y-101933148D01*
X157560575Y-102141196D01*
X157429458Y-102368299D01*
X157429453Y-102368309D01*
X157329105Y-102610571D01*
X157329102Y-102610581D01*
X157261230Y-102863885D01*
X157227000Y-103123872D01*
X114300500Y-103123872D01*
X114300500Y-100819986D01*
X117800001Y-100819986D01*
X117810494Y-100922697D01*
X117865641Y-101089119D01*
X117865643Y-101089124D01*
X117957684Y-101238345D01*
X118081654Y-101362315D01*
X118230875Y-101454356D01*
X118230880Y-101454358D01*
X118397302Y-101509505D01*
X118397309Y-101509506D01*
X118500019Y-101519999D01*
X119099999Y-101519999D01*
X120100000Y-101519999D01*
X120699972Y-101519999D01*
X120699986Y-101519998D01*
X120802697Y-101509505D01*
X120969119Y-101454358D01*
X120969124Y-101454356D01*
X121118345Y-101362315D01*
X121242315Y-101238345D01*
X121334356Y-101089124D01*
X121334358Y-101089119D01*
X121389505Y-100922697D01*
X121389506Y-100922690D01*
X121399999Y-100819986D01*
X121400000Y-100819973D01*
X121400000Y-100220000D01*
X120100000Y-100220000D01*
X120100000Y-101519999D01*
X119099999Y-101519999D01*
X119100000Y-101519998D01*
X119100000Y-100220000D01*
X117800001Y-100220000D01*
X117800001Y-100819986D01*
X114300500Y-100819986D01*
X114300500Y-99655981D01*
X118950000Y-99655981D01*
X118950000Y-99784019D01*
X118974979Y-99909598D01*
X119023978Y-100027890D01*
X119095112Y-100134351D01*
X119185649Y-100224888D01*
X119292110Y-100296022D01*
X119410402Y-100345021D01*
X119535981Y-100370000D01*
X119664019Y-100370000D01*
X119789598Y-100345021D01*
X119907890Y-100296022D01*
X120014351Y-100224888D01*
X120104888Y-100134351D01*
X120106254Y-100132306D01*
X140799500Y-100132306D01*
X140799500Y-101732324D01*
X140799501Y-101732341D01*
X140810000Y-101835119D01*
X140810001Y-101835122D01*
X140865185Y-102001654D01*
X140865186Y-102001657D01*
X140957288Y-102150979D01*
X141081344Y-102275035D01*
X141230666Y-102367137D01*
X141397203Y-102422322D01*
X141499991Y-102432823D01*
X143100008Y-102432822D01*
X143202797Y-102422322D01*
X143369334Y-102367137D01*
X143518656Y-102275035D01*
X143642712Y-102150979D01*
X143734814Y-102001657D01*
X143789999Y-101835120D01*
X143800500Y-101732332D01*
X143800499Y-100132315D01*
X143789999Y-100029526D01*
X143734814Y-99862989D01*
X143642712Y-99713667D01*
X143518656Y-99589611D01*
X143369334Y-99497509D01*
X143202797Y-99442324D01*
X143202795Y-99442323D01*
X143100010Y-99431823D01*
X141499998Y-99431823D01*
X141499981Y-99431824D01*
X141397203Y-99442323D01*
X141397200Y-99442324D01*
X141230668Y-99497508D01*
X141230663Y-99497510D01*
X141081342Y-99589612D01*
X140957289Y-99713665D01*
X140865187Y-99862986D01*
X140865186Y-99862989D01*
X140810001Y-100029526D01*
X140810001Y-100029527D01*
X140810000Y-100029527D01*
X140799500Y-100132306D01*
X120106254Y-100132306D01*
X120176022Y-100027890D01*
X120225021Y-99909598D01*
X120250000Y-99784019D01*
X120250000Y-99655981D01*
X120225021Y-99530402D01*
X120176022Y-99412110D01*
X120104888Y-99305649D01*
X120019239Y-99220000D01*
X120100000Y-99220000D01*
X121399999Y-99220000D01*
X121399999Y-98620028D01*
X121399998Y-98620013D01*
X121389505Y-98517302D01*
X121334358Y-98350880D01*
X121334356Y-98350875D01*
X121242315Y-98201654D01*
X121118345Y-98077684D01*
X120969124Y-97985643D01*
X120969119Y-97985641D01*
X120802697Y-97930494D01*
X120802690Y-97930493D01*
X120699986Y-97920000D01*
X120100000Y-97920000D01*
X120100000Y-99220000D01*
X120019239Y-99220000D01*
X120014351Y-99215112D01*
X119907890Y-99143978D01*
X119789598Y-99094979D01*
X119664019Y-99070000D01*
X119535981Y-99070000D01*
X119410402Y-99094979D01*
X119292110Y-99143978D01*
X119185649Y-99215112D01*
X119095112Y-99305649D01*
X119023978Y-99412110D01*
X118974979Y-99530402D01*
X118950000Y-99655981D01*
X114300500Y-99655981D01*
X114300500Y-98620013D01*
X117800000Y-98620013D01*
X117800000Y-99220000D01*
X119100000Y-99220000D01*
X119100000Y-97920000D01*
X118500028Y-97920000D01*
X118500012Y-97920001D01*
X118397302Y-97930494D01*
X118230880Y-97985641D01*
X118230875Y-97985643D01*
X118081654Y-98077684D01*
X117957684Y-98201654D01*
X117865643Y-98350875D01*
X117865641Y-98350880D01*
X117810494Y-98517302D01*
X117810493Y-98517309D01*
X117800000Y-98620013D01*
X114300500Y-98620013D01*
X114300500Y-94521995D01*
X117799500Y-94521995D01*
X117799500Y-94758004D01*
X117799501Y-94758020D01*
X117830306Y-94992010D01*
X117891394Y-95219993D01*
X117981714Y-95438045D01*
X117981719Y-95438056D01*
X118052677Y-95560957D01*
X118099727Y-95642450D01*
X118099729Y-95642453D01*
X118099730Y-95642454D01*
X118243406Y-95829697D01*
X118243412Y-95829704D01*
X118410295Y-95996587D01*
X118410302Y-95996593D01*
X118442883Y-96021593D01*
X118597550Y-96140273D01*
X118728918Y-96216118D01*
X118801943Y-96258280D01*
X118801948Y-96258282D01*
X118801951Y-96258284D01*
X119020007Y-96348606D01*
X119247986Y-96409693D01*
X119481989Y-96440500D01*
X119481996Y-96440500D01*
X119718004Y-96440500D01*
X119718011Y-96440500D01*
X119952014Y-96409693D01*
X120179993Y-96348606D01*
X120398049Y-96258284D01*
X120602450Y-96140273D01*
X120789699Y-95996592D01*
X120956592Y-95829699D01*
X121100273Y-95642450D01*
X121218284Y-95438049D01*
X121308606Y-95219993D01*
X121369693Y-94992014D01*
X121400500Y-94758011D01*
X121400500Y-94521989D01*
X121369693Y-94287986D01*
X121308606Y-94060007D01*
X121218284Y-93841951D01*
X121218282Y-93841948D01*
X121218280Y-93841943D01*
X121176118Y-93768918D01*
X121100273Y-93637550D01*
X120975776Y-93475302D01*
X120973083Y-93471792D01*
X120956593Y-93450302D01*
X120956587Y-93450295D01*
X120905927Y-93399635D01*
X148799500Y-93399635D01*
X148799500Y-95400370D01*
X148799501Y-95400376D01*
X148805908Y-95459983D01*
X148856202Y-95594828D01*
X148856206Y-95594835D01*
X148942452Y-95710044D01*
X148942455Y-95710047D01*
X149057664Y-95796293D01*
X149057669Y-95796296D01*
X149085539Y-95806690D01*
X149141473Y-95848561D01*
X149165891Y-95914024D01*
X149151040Y-95982298D01*
X149142525Y-95995759D01*
X149009783Y-96178461D01*
X148905950Y-96382244D01*
X148835278Y-96599750D01*
X148835278Y-96599753D01*
X148799500Y-96825646D01*
X148799500Y-97054353D01*
X148835278Y-97280246D01*
X148835278Y-97280249D01*
X148905950Y-97497755D01*
X148905952Y-97497758D01*
X149009783Y-97701538D01*
X149144214Y-97886566D01*
X149305934Y-98048286D01*
X149346397Y-98077684D01*
X149390438Y-98109682D01*
X149433103Y-98165013D01*
X149439082Y-98234626D01*
X149406476Y-98296421D01*
X149390438Y-98310318D01*
X149305932Y-98371715D01*
X149144216Y-98533431D01*
X149144216Y-98533432D01*
X149144214Y-98533434D01*
X149137771Y-98542302D01*
X149009783Y-98718461D01*
X148905950Y-98922244D01*
X148835278Y-99139750D01*
X148835278Y-99139753D01*
X148799500Y-99365646D01*
X148799500Y-99594353D01*
X148835278Y-99820246D01*
X148835278Y-99820249D01*
X148905950Y-100037755D01*
X148998809Y-100220000D01*
X149009783Y-100241538D01*
X149144214Y-100426566D01*
X149305934Y-100588286D01*
X149490962Y-100722717D01*
X149681838Y-100819973D01*
X149694744Y-100826549D01*
X149912251Y-100897221D01*
X149912252Y-100897221D01*
X149912255Y-100897222D01*
X150138146Y-100933000D01*
X150138147Y-100933000D01*
X150461853Y-100933000D01*
X150461854Y-100933000D01*
X150687745Y-100897222D01*
X150687748Y-100897221D01*
X150687749Y-100897221D01*
X150848512Y-100844986D01*
X185572501Y-100844986D01*
X185582994Y-100947697D01*
X185638141Y-101114119D01*
X185638143Y-101114124D01*
X185730184Y-101263345D01*
X185854154Y-101387315D01*
X186003375Y-101479356D01*
X186003380Y-101479358D01*
X186169802Y-101534505D01*
X186169809Y-101534506D01*
X186272519Y-101544999D01*
X186872499Y-101544999D01*
X187872500Y-101544999D01*
X188472472Y-101544999D01*
X188472486Y-101544998D01*
X188575197Y-101534505D01*
X188741619Y-101479358D01*
X188741624Y-101479356D01*
X188890845Y-101387315D01*
X189014815Y-101263345D01*
X189106856Y-101114124D01*
X189106858Y-101114119D01*
X189162005Y-100947697D01*
X189162006Y-100947690D01*
X189172499Y-100844986D01*
X189172500Y-100844973D01*
X189172500Y-100245000D01*
X187872500Y-100245000D01*
X187872500Y-101544999D01*
X186872499Y-101544999D01*
X186872500Y-101544998D01*
X186872500Y-100245000D01*
X185572501Y-100245000D01*
X185572501Y-100844986D01*
X150848512Y-100844986D01*
X150905255Y-100826549D01*
X150905255Y-100826548D01*
X150905258Y-100826548D01*
X151109038Y-100722717D01*
X151294066Y-100588286D01*
X151455786Y-100426566D01*
X151590217Y-100241538D01*
X151694048Y-100037758D01*
X151764722Y-99820245D01*
X151786779Y-99680981D01*
X186722500Y-99680981D01*
X186722500Y-99809019D01*
X186747479Y-99934598D01*
X186796478Y-100052890D01*
X186867612Y-100159351D01*
X186958149Y-100249888D01*
X187064610Y-100321022D01*
X187182902Y-100370021D01*
X187308481Y-100395000D01*
X187436519Y-100395000D01*
X187562098Y-100370021D01*
X187680390Y-100321022D01*
X187786851Y-100249888D01*
X187877388Y-100159351D01*
X187948522Y-100052890D01*
X187997521Y-99934598D01*
X188022500Y-99809019D01*
X188022500Y-99680981D01*
X187997521Y-99555402D01*
X187948522Y-99437110D01*
X187877388Y-99330649D01*
X187791739Y-99245000D01*
X187872500Y-99245000D01*
X189172499Y-99245000D01*
X189172499Y-98645028D01*
X189172498Y-98645013D01*
X189162005Y-98542302D01*
X189106858Y-98375880D01*
X189106856Y-98375875D01*
X189014815Y-98226654D01*
X188890845Y-98102684D01*
X188741624Y-98010643D01*
X188741619Y-98010641D01*
X188575197Y-97955494D01*
X188575190Y-97955493D01*
X188472486Y-97945000D01*
X187872500Y-97945000D01*
X187872500Y-99245000D01*
X187791739Y-99245000D01*
X187786851Y-99240112D01*
X187680390Y-99168978D01*
X187562098Y-99119979D01*
X187436519Y-99095000D01*
X187308481Y-99095000D01*
X187182902Y-99119979D01*
X187064610Y-99168978D01*
X186958149Y-99240112D01*
X186867612Y-99330649D01*
X186796478Y-99437110D01*
X186747479Y-99555402D01*
X186722500Y-99680981D01*
X151786779Y-99680981D01*
X151800500Y-99594354D01*
X151800500Y-99365646D01*
X151764722Y-99139755D01*
X151764721Y-99139751D01*
X151764721Y-99139750D01*
X151694049Y-98922244D01*
X151667090Y-98869334D01*
X151590217Y-98718462D01*
X151455786Y-98533434D01*
X151294066Y-98371714D01*
X151209559Y-98310316D01*
X151166896Y-98254988D01*
X151160917Y-98185375D01*
X151193523Y-98123580D01*
X151209556Y-98109685D01*
X151294066Y-98048286D01*
X151455786Y-97886566D01*
X151590217Y-97701538D01*
X151694048Y-97497758D01*
X151747232Y-97334075D01*
X151764721Y-97280249D01*
X151764721Y-97280248D01*
X151764722Y-97280245D01*
X151800500Y-97054354D01*
X151800500Y-96999983D01*
X171131823Y-96999983D01*
X171131823Y-98600001D01*
X171131824Y-98600018D01*
X171142323Y-98702796D01*
X171142324Y-98702799D01*
X171197508Y-98869331D01*
X171197509Y-98869334D01*
X171289611Y-99018656D01*
X171413667Y-99142712D01*
X171562989Y-99234814D01*
X171729526Y-99289999D01*
X171832314Y-99300500D01*
X173432331Y-99300499D01*
X173535120Y-99289999D01*
X173701657Y-99234814D01*
X173832809Y-99153919D01*
X176985507Y-99153919D01*
X177056520Y-99190102D01*
X177281075Y-99263065D01*
X177281074Y-99263065D01*
X177514271Y-99300000D01*
X177750375Y-99300000D01*
X177983570Y-99263065D01*
X178208120Y-99190104D01*
X178279137Y-99153919D01*
X177770231Y-98645013D01*
X185572500Y-98645013D01*
X185572500Y-99245000D01*
X186872500Y-99245000D01*
X186872500Y-97945000D01*
X186272528Y-97945000D01*
X186272512Y-97945001D01*
X186169802Y-97955494D01*
X186003380Y-98010641D01*
X186003375Y-98010643D01*
X185854154Y-98102684D01*
X185730184Y-98226654D01*
X185638143Y-98375875D01*
X185638141Y-98375880D01*
X185582994Y-98542302D01*
X185582993Y-98542309D01*
X185572500Y-98645013D01*
X177770231Y-98645013D01*
X177632324Y-98507106D01*
X177632323Y-98507106D01*
X176985507Y-99153919D01*
X173832809Y-99153919D01*
X173850979Y-99142712D01*
X173975035Y-99018656D01*
X174067137Y-98869334D01*
X174122322Y-98702797D01*
X174132823Y-98600009D01*
X174132822Y-97681947D01*
X176132323Y-97681947D01*
X176132323Y-97918052D01*
X176169257Y-98151247D01*
X176242221Y-98375805D01*
X176278401Y-98446813D01*
X176278402Y-98446814D01*
X176925217Y-97800000D01*
X176859391Y-97734174D01*
X177132323Y-97734174D01*
X177132323Y-97865826D01*
X177166398Y-97992993D01*
X177232224Y-98107007D01*
X177325316Y-98200099D01*
X177439330Y-98265925D01*
X177566497Y-98300000D01*
X177698149Y-98300000D01*
X177825316Y-98265925D01*
X177939330Y-98200099D01*
X178032422Y-98107007D01*
X178098248Y-97992993D01*
X178132323Y-97865826D01*
X178132323Y-97799999D01*
X178339429Y-97799999D01*
X178339429Y-97800000D01*
X178986242Y-98446814D01*
X179022427Y-98375797D01*
X179095388Y-98151247D01*
X179132323Y-97918052D01*
X179132323Y-97681947D01*
X179095388Y-97448752D01*
X179022425Y-97224197D01*
X178986242Y-97153184D01*
X178339429Y-97799999D01*
X178132323Y-97799999D01*
X178132323Y-97734174D01*
X178098248Y-97607007D01*
X178032422Y-97492993D01*
X177939330Y-97399901D01*
X177825316Y-97334075D01*
X177698149Y-97300000D01*
X177566497Y-97300000D01*
X177439330Y-97334075D01*
X177325316Y-97399901D01*
X177232224Y-97492993D01*
X177166398Y-97607007D01*
X177132323Y-97734174D01*
X176859391Y-97734174D01*
X176278401Y-97153184D01*
X176242217Y-97224202D01*
X176242217Y-97224203D01*
X176169257Y-97448751D01*
X176132323Y-97681947D01*
X174132822Y-97681947D01*
X174132822Y-96999992D01*
X174122322Y-96897203D01*
X174067137Y-96730666D01*
X173975035Y-96581344D01*
X173850979Y-96457288D01*
X173832805Y-96446078D01*
X176985507Y-96446078D01*
X177632323Y-97092894D01*
X177632324Y-97092894D01*
X178279137Y-96446079D01*
X178279136Y-96446078D01*
X178208128Y-96409898D01*
X177983570Y-96336934D01*
X177983571Y-96336934D01*
X177750375Y-96300000D01*
X177514271Y-96300000D01*
X177281074Y-96336934D01*
X177056526Y-96409894D01*
X177056525Y-96409894D01*
X176985507Y-96446078D01*
X173832805Y-96446078D01*
X173729313Y-96382244D01*
X173701659Y-96365187D01*
X173701654Y-96365185D01*
X173700185Y-96364698D01*
X173535120Y-96310001D01*
X173535118Y-96310000D01*
X173432333Y-96299500D01*
X171832321Y-96299500D01*
X171832304Y-96299501D01*
X171729526Y-96310000D01*
X171729523Y-96310001D01*
X171562991Y-96365185D01*
X171562986Y-96365187D01*
X171413665Y-96457289D01*
X171289612Y-96581342D01*
X171197510Y-96730663D01*
X171197509Y-96730666D01*
X171142324Y-96897203D01*
X171142324Y-96897204D01*
X171142323Y-96897204D01*
X171131823Y-96999983D01*
X151800500Y-96999983D01*
X151800500Y-96825646D01*
X151764722Y-96599755D01*
X151764721Y-96599751D01*
X151764721Y-96599750D01*
X151694049Y-96382244D01*
X151685358Y-96365187D01*
X151590217Y-96178462D01*
X151457472Y-95995755D01*
X151433994Y-95929953D01*
X151449819Y-95861899D01*
X151499925Y-95813204D01*
X151514455Y-95806692D01*
X151542331Y-95796296D01*
X151657546Y-95710046D01*
X151743796Y-95594831D01*
X151794091Y-95459983D01*
X151800500Y-95400373D01*
X151800499Y-94546995D01*
X185572000Y-94546995D01*
X185572000Y-94783004D01*
X185572001Y-94783020D01*
X185602806Y-95017010D01*
X185663894Y-95244993D01*
X185754214Y-95463045D01*
X185754219Y-95463056D01*
X185825177Y-95585957D01*
X185872227Y-95667450D01*
X185872229Y-95667453D01*
X185872230Y-95667454D01*
X186015906Y-95854697D01*
X186015912Y-95854704D01*
X186182795Y-96021587D01*
X186182801Y-96021592D01*
X186370050Y-96165273D01*
X186501418Y-96241118D01*
X186574443Y-96283280D01*
X186574448Y-96283282D01*
X186574451Y-96283284D01*
X186792507Y-96373606D01*
X187020486Y-96434693D01*
X187254489Y-96465500D01*
X187254496Y-96465500D01*
X187490504Y-96465500D01*
X187490511Y-96465500D01*
X187724514Y-96434693D01*
X187952493Y-96373606D01*
X188170549Y-96283284D01*
X188374950Y-96165273D01*
X188562199Y-96021592D01*
X188729092Y-95854699D01*
X188872773Y-95667450D01*
X188990784Y-95463049D01*
X189081106Y-95244993D01*
X189142193Y-95017014D01*
X189173000Y-94783011D01*
X189173000Y-94546989D01*
X189142193Y-94312986D01*
X189081106Y-94085007D01*
X188990784Y-93866951D01*
X188990782Y-93866948D01*
X188990780Y-93866943D01*
X188948618Y-93793918D01*
X188872773Y-93662550D01*
X188729092Y-93475301D01*
X188729087Y-93475295D01*
X188562204Y-93308412D01*
X188562197Y-93308406D01*
X188374954Y-93164730D01*
X188374953Y-93164729D01*
X188374950Y-93164727D01*
X188293457Y-93117677D01*
X188170556Y-93046719D01*
X188170545Y-93046714D01*
X187952493Y-92956394D01*
X187724510Y-92895306D01*
X187490520Y-92864501D01*
X187490517Y-92864500D01*
X187490511Y-92864500D01*
X187254489Y-92864500D01*
X187254483Y-92864500D01*
X187254479Y-92864501D01*
X187020489Y-92895306D01*
X186792506Y-92956394D01*
X186574454Y-93046714D01*
X186574443Y-93046719D01*
X186370045Y-93164730D01*
X186182802Y-93308406D01*
X186182795Y-93308412D01*
X186015912Y-93475295D01*
X186015906Y-93475302D01*
X185872230Y-93662545D01*
X185754219Y-93866943D01*
X185754214Y-93866954D01*
X185663894Y-94085006D01*
X185602806Y-94312989D01*
X185572001Y-94546979D01*
X185572000Y-94546995D01*
X151800499Y-94546995D01*
X151800499Y-94312989D01*
X151800499Y-93399629D01*
X151800498Y-93399623D01*
X151800497Y-93399616D01*
X151794091Y-93340017D01*
X151772977Y-93283408D01*
X151743797Y-93205171D01*
X151743793Y-93205164D01*
X151657547Y-93089955D01*
X151657544Y-93089952D01*
X151542335Y-93003706D01*
X151542328Y-93003702D01*
X151407482Y-92953408D01*
X151407483Y-92953408D01*
X151347883Y-92947001D01*
X151347881Y-92947000D01*
X151347873Y-92947000D01*
X151347864Y-92947000D01*
X149252129Y-92947000D01*
X149252123Y-92947001D01*
X149192516Y-92953408D01*
X149057671Y-93003702D01*
X149057664Y-93003706D01*
X148942455Y-93089952D01*
X148942452Y-93089955D01*
X148856206Y-93205164D01*
X148856202Y-93205171D01*
X148805908Y-93340017D01*
X148799501Y-93399616D01*
X148799501Y-93399623D01*
X148799500Y-93399635D01*
X120905927Y-93399635D01*
X120789704Y-93283412D01*
X120789697Y-93283406D01*
X120602454Y-93139730D01*
X120602453Y-93139729D01*
X120602450Y-93139727D01*
X120516237Y-93089952D01*
X120398056Y-93021719D01*
X120398045Y-93021714D01*
X120179993Y-92931394D01*
X119952010Y-92870306D01*
X119718020Y-92839501D01*
X119718017Y-92839500D01*
X119718011Y-92839500D01*
X119481989Y-92839500D01*
X119481983Y-92839500D01*
X119481979Y-92839501D01*
X119247989Y-92870306D01*
X119020006Y-92931394D01*
X118801954Y-93021714D01*
X118801943Y-93021719D01*
X118597545Y-93139730D01*
X118410302Y-93283406D01*
X118410295Y-93283412D01*
X118243412Y-93450295D01*
X118243406Y-93450302D01*
X118099730Y-93637545D01*
X117981719Y-93841943D01*
X117981714Y-93841954D01*
X117891394Y-94060006D01*
X117830306Y-94287989D01*
X117799501Y-94521979D01*
X117799500Y-94521995D01*
X114300500Y-94521995D01*
X114300500Y-88624500D01*
X114320185Y-88557461D01*
X114372989Y-88511706D01*
X114424500Y-88500500D01*
X192175500Y-88500500D01*
X192242539Y-88520185D01*
G37*
%TD.AperFunction*%
%TD*%
M02*
